<?xml version="1.0" encoding="utf-8" ?>
<svg baseProfile="full" height="200mm" version="1.1" viewBox="0,0,200,200" width="200mm" xmlns="http://www.w3.org/2000/svg" xmlns:ev="http://www.w3.org/2001/xml-events" xmlns:xlink="http://www.w3.org/1999/xlink"><defs /><rect fill="#f5f5f5" height="200" rx="1" ry="1" width="200" x="0" y="0" /><text alignment-baseline="middle" fill="#006cb8" style="dominant-baseline: central; font-size:9.0px; font-family:Arial;" text-anchor="middle" x="100.0" y="100.0">2024</text><line stroke="#006cb8" stroke-width="0.3" x1="100.0" x2="100.0" y1="15.0" y2="10.0" /><path d="M 100.0 14.0 a86.0,86.0 0 0,1 42.35913384403234,11.155469271406648" fill="none" id="id121" stroke="none" /><text fill="#006cb8" style="font-size:6.75px; font-family:Arial;" text-anchor="middle"><textPath startOffset="22.145653131862478" xlink:href="#id121">一月</textPath></text><path d="M 100.0 79.0 l 0.0 -0.8241920894699817 a21.82419208946998,21.82419208946998 0 0,0 0.37464127803791775,0.0032158447903169796 l -0.014148353189062986 0.8240706428740996" fill="#fe0500" stroke="none" /><path d="M 100.72087961077811 79.0123766808444 l 0.2686178717882026 -7.820516249306572 a28.825128111840225,28.825128111840225 0 0,0 0.49438421872692884,0.0212309855565022 l -0.40282785111596775 7.814752695324239" fill="#f65600" stroke="none" /><path d="M 101.44090949804482 79.04949213459386 l 0.5278267365866219 -7.674484907924274 a28.69261461830847,28.69261461830847 0 0,0 0.49109596737073535,0.03801393378246229 l -0.6594916987325907 7.664293207146758" fill="#f65500" stroke="none" /><path d="M 102.15924093988457 79.11130261209362 l 0.08522654062247312 -0.8244894692373342 a21.828882650385285,21.828882650385285 0 0,0 0.3724049981810617,0.041728756808680746 l -0.09936744040433151 0.8229049519216826" fill="#fe0500" stroke="none" /><path d="M 102.51750503828377 79.15144685158666 l 0.9024942767397276 -7.473947264699048 a28.52823907929672,28.52823907929672 0 0,0 0.48568943682144755,0.0628822214378143 l -1.0306615354519668 7.457353447060837" fill="#f65300" stroke="none" /><path d="M 103.23170211078529 79.25015418208739 l 1.1457532335014544 -7.356557666991444 a28.44524621351434,28.44524621351434 0 0,0 0.48183876234959583,0.07928638498347296 l -1.2718694989041208 7.335805283512303" fill="#f65200" stroke="none" /><path d="M 103.94208987418118 79.37332000966035 l 1.400655214323756 -7.328819941898901 a28.461463446951097,28.461463446951097 0 0,0 0.47910606454425797,0.0958346310567568 l -1.526257764398971 7.303695914179285" fill="#f65200" stroke="none" /><path d="M 104.64783097203109 79.52079915486377 l 0.4875310152341255 -2.148151608630844 a23.202780475780212,23.202780475780212 0 0,0 0.3876718863230119,0.09148950959641058 l -0.5243350552970224 2.1394659553882054" fill="#fd1500" stroke="none" /><path d="M 105.3480935250658 79.69241777938227 l 1.9203179060527829 -7.291759873704066 a28.54038347274644,28.54038347274644 0 0,0 0.47270839029891976,0.12883877381681227 l -2.0452076972863953 7.257720605743112" fill="#f65300" stroke="none" /><path d="M 105.69591212413111 79.78721728523813 l 0.36338122153955776 -1.2895117609849485 a22.33973373992226,22.33973373992226 0 0,0 0.3682226266730926,0.10718424009047647 l -0.3854638605942548 1.283083826591956" fill="#fe0b00" stroke="none" /><path d="M 106.38641147887787 79.99465700312896 l 2.283773346032114 -7.153887478999682 a28.509575670984024,28.509575670984024 0 0,0 0.46494673460110175,0.1528372266789869 l -2.4062428182809583 7.113629330918673" fill="#f65300" stroke="none" /><path d="M 107.06938296918511 80.22567764915836 l 1.1361690767713504 -3.1780671194454455 a24.375054190188912,24.375054190188912 0 0,0 0.3927991793799292,0.14424129950386533 l -1.1905574078054042 3.1580949709328583" fill="#fb2300" stroke="none" /><path d="M 107.40779381753099 80.34994680014964 l 2.6213303622282544 -6.953390218592263 a28.431083931698947,28.431083931698947 0 0,0 0.45520566786722894,0.17608333126255182 l -2.740308292589009 6.907366999191673" fill="#f65200" stroke="none" /><path d="M 108.73861861582097 80.90454125486305 l 3.120245029842931 -6.818298504778806 a28.498341386368615,28.498341386368615 0 0,0 0.44309667136153014,0.20739161545972745 l -3.2368304150759664 6.763730657748544" fill="#f65300" stroke="none" /><path d="M 109.3889696526874 81.21577127319529 l 8.300280255189747 -16.606120647694073 a39.564964187427464,39.564964187427464 0 0,0 0.6049158559266711,0.30887434623227755 l -8.584123332829996 16.461188349788962" fill="#e8c800" stroke="none" /><line stroke="#006cb8" stroke-width="0.3" x1="143.13028292997686" x2="145.6673583964461" y1="26.7553504044142" y2="22.446841604673864" /><path d="M 143.63769802327073 25.89364864446614 a86.0,86.0 0 0,1 29.32050498858742,28.57503671076993" fill="none" id="id122" stroke="none" /><text fill="#006cb8" style="font-size:6.75px; font-family:Arial;" text-anchor="middle"><textPath startOffset="20.669276256404974" xlink:href="#id122">二月</textPath></text><path d="M 110.96478420261332 82.08984904055464 l 6.572256302882221 -10.735286746521835 a33.58733230040514,33.58733230040514 0 0,0 0.48915290646303966,0.30526759122547864 l -6.755573338134973 10.620883358454812" fill="#ef8a00" stroke="none" /><path d="M 111.27062007382361 82.28071324371311 l 1.5923268265521762 -2.50340224979603 a23.966905382185544,23.966905382185544 0 0,0 0.34525396325942803,0.2237894477447149 l -1.6350664220686115 2.4756989603474207" fill="#fc1e00" stroke="none" /><path d="M 111.8722381534696 82.67804972795209 l 4.176386935038748 -6.093473351057219 a28.38732869928006,28.38732869928006 0 0,0 0.3995920815224365,0.2789463067876357 l -4.280374107734945 6.020882228464457" fill="#f65100" stroke="none" /><path d="M 112.16784306229584 82.88440491214696 l 4.322592028336017 -6.08026702088491 a28.46019094183887,28.46019094183887 0 0,0 0.3957579144476066,0.28649821007998777 l -4.426330953157592 6.005168039431847" fill="#f65200" stroke="none" /><path d="M 116.57777611688842 87.10902102172516 l 6.033110897436542 -4.691383524791685 a28.642480387770348,28.642480387770348 0 0,0 0.2984928665015043,0.39073674400020947 l -6.112755741292353 4.5871258675505935" fill="#f65400" stroke="none" /><path d="M 117.42321728460499 88.27688183743584 l 6.316039543290259 -4.249713280614587 a28.612648585074595,28.612648585074595 0 0,0 0.27069685769542084,0.4098695442097095 l -6.388060839906404 4.140663858065819" fill="#f65400" stroke="none" /><line stroke="#006cb8" stroke-width="0.3" x1="172.87174338648825" x2="177.1583165268699" y1="56.24261187166439" y2="53.66864786411523" /><path d="M 173.72905801456457 55.72781907015455 a86.0,86.0 0 0,1 12.242430191666344,42.057860355516425" fill="none" id="id123" stroke="none" /><text fill="#006cb8" style="font-size:6.75px; font-family:Arial;" text-anchor="middle"><textPath startOffset="22.145653131862474" xlink:href="#id123">三月</textPath></text><path d="M 118.53625476483649 90.13048839642627 l 6.702042816865108 -3.5684603059177675 a28.592844452114367,28.592844452114367 0 0,0 0.22696173596295174,0.43522905473557444 l -6.762312621803004 3.4528850080776947" fill="#f65400" stroke="none" /><path d="M 118.8641267826498 90.77261029715802 l 6.688117939907877 -3.271493630272865 a28.445373875839515,28.445373875839515 0 0,0 0.21079477096028,0.44047999802413906 l -6.7432919688280695 3.1562011301836224" fill="#f65200" stroke="none" /><path d="M 119.71291397450082 92.76114493625339 l 7.029688839793031 -2.5813991133082785 a28.48866787663196,28.48866787663196 0 0,0 0.1646371375801253,0.4605193753995449 l -7.072966147417099 2.4603447815278168" fill="#f65300" stroke="none" /><path d="M 119.94978838288452 93.4421083053983 l 7.087743905502471 -2.329882202221024 a28.46086219858092,28.46086219858092 0 0,0 0.14858641506503506,0.465444828896901 l -7.126695036344763 2.207868339632736" fill="#f65200" stroke="none" /><path d="M 120.35273937422433 94.82641323984039 l 7.2235561736083564 -1.8361997318345609 a28.45328070372133,28.45328070372133 0 0,0 0.11626887599583856,0.4744166909142338 l -7.254012576120486 1.711927216312232" fill="#f65200" stroke="none" /><path d="M 120.51834098615036 95.52812308129327 l 7.297951134098282 -1.590554482570122 a28.469267321344866,28.469267321344866 0 0,0 0.09997090206804844,0.47839695626955453 l -7.324179746990697 1.4650410750151632" fill="#f65200" stroke="none" /><path d="M 120.65975698304385 96.23510406497455 l 7.25745763046349 -1.3225505389040544 a28.376979814661834,28.376979814661834 0 0,0 0.0832191181383396,0.4799857588018853 l -7.279091566094064 1.1977717471815763" fill="#f65100" stroke="none" /><path d="M 120.86939407059847 97.66154086499901 l 7.307977162890636 -0.8188740840835591 a28.35371232636379,28.35371232636379 0 0,0 0.05004782286673333,0.48416728651070284 l -7.320957378239036 0.6933022752899248" fill="#f65100" stroke="none" /><path d="M 120.93736805541906 98.37931529534042 l 7.332942031455386 -0.5676160900012991 a28.354877759848453,28.354877759848453 0 0,0 0.033399397972734064,0.4856199163633104 l -7.341605390593186 0.4416527494836545" fill="#f65100" stroke="none" /><path d="M 120.98066250479742 99.09900007780936 l 1.3038408062235152 -0.05599253430094264 a22.305042532590807,22.305042532590807 0 0,0 0.013144375375686974,0.38268414729158684 l -1.3046098685960503 0.033602122445235826" fill="#fe0b00" stroke="none" /><line stroke="#006cb8" stroke-width="0.3" x1="184.99686870605535" x2="189.99668451229388" y1="99.2704041080226" y2="99.22748670261217" /><path d="M 185.99683186730306 99.26182062694052 a86.0,86.0 0 0,1 -10.086455211305974,41.156179273409016" fill="none" id="id124" stroke="none" /><text fill="#006cb8" style="font-size:6.75px; font-family:Arial;" text-anchor="middle"><textPath startOffset="21.40746469413373" xlink:href="#id124">四月</textPath></text><path d="M 120.99922638620191 99.81974689727618 l 7.451947811291365 -0.06396600949089809 a28.45222234186423,28.45222234186423 0 0,0 0.0,0.488438224429449 l -7.451947811291365 -0.06396600949089719" fill="#f65200" stroke="none" /><path d="M 120.99303781780057 100.54070618675476 l 11.777736885764137 0.3033527236683436 a32.78164288311465,32.78164288311465 0 0,0 -0.019318242449341237,0.5624295508610816 l -11.770793956317949 -0.5054885390935359" fill="#f08200" stroke="none" /><path d="M 120.9064616781168 101.97986365728391 l 1.2293595076773645 0.11642162353730733 a22.23485982748804,22.23485982748804 0 0,0 -0.039247288443356995,0.37968191341953006 l -1.2271798267523413 -0.1375080592397688" fill="#fe0a00" stroke="none" /><path d="M 120.86939407059847 102.33845913500097 l 9.094801294358884 1.019091454973057 a30.15171885371656,30.15171885371656 0 0,0 -0.062052113549656916,0.5138805156844205 l -9.075967094549563 -1.175065647580886" fill="#f46500" stroke="none" /><path d="M 120.77682067341334 103.0534771498775 l 8.576755924876604 1.2604877641457062 a29.668885256967414,29.668885256967414 0 0,0 -0.07838026114178596,0.5032575027357878 l -8.553854171596551 -1.4075334488129445" fill="#f46000" stroke="none" /><path d="M 120.65975698304385 103.76489593502545 l 7.456357907747829 1.3587967951421032 a28.579155756343976,28.579155756343976 0 0,0 -0.09209797302273659,0.48189551175403744 l -7.4319336424429325 -1.486594871929455" fill="#f65400" stroke="none" /><path d="M 120.43855184770803 104.8234425847677 l 7.264770151407442 1.7144659747885957 a28.464333790197777,28.464333790197777 0 0,0 -0.11631404231441192,0.4746009849070766 l -7.234268582576734 -1.8389227843037719" fill="#f65200" stroke="none" /><path d="M 120.35273937422433 105.17358676015961 l 1.9485417040210922 0.4953116814491005 a23.010509496145033,23.010509496145033 0 0,0 -0.10060032494232189,0.3819958197462335 l -1.9397518982740398 -0.5286880055681372" fill="#fd1300" stroke="none" /><path d="M 120.26092885502905 105.52220625578681 l 9.46756609877874 2.5804272406185325 a30.812920695637494,30.812920695637494 0 0,0 -0.14347304043837258,0.5091352058472005 l -9.421874566265787 -2.7425703703687416" fill="#f36c00" stroke="none" /><path d="M 119.94978838288452 106.5578916946017 l 24.184551212133943 7.949942349653667 a46.4576923678315,46.4576923678315 0 0,0 -0.2555495594567054,0.755486864352811 l -24.044516231104872 -8.363930888480638" fill="#b5df00" stroke="none" /><path d="M 119.71291397450082 107.23885506374661 l 2.364454573182456 0.8682604703810186 a23.518833395258547,23.518833395258547 0 0,0 -0.14242256954081559,0.3777927865261721 l -2.3492013198271997 -0.9087215371013497" fill="#fc1900" stroke="none" /><path d="M 119.4528033332814 107.91128576633889 l 8.135347048195788 3.3085748210132997 a29.78239938404256,29.78239938404256 0 0,0 -0.19666900391710454,0.47193401456407025 l -8.077352199742199 -3.4477413450186476" fill="#f46100" stroke="none" /><path d="M 119.31412917781788 108.2440532568976 l 1.921938162478067 0.8203611160543784 a23.08969822250093,23.08969822250093 0 0,0 -0.1587319094182013,0.3632096723962531 l -1.9075723710429 -0.8532328582264762" fill="#fd1400" stroke="none" /><path d="M 118.8641267826498 109.22738970284198 l 8.849258986735107 4.328616012434966 a30.85120810852255,30.85120810852255 0 0,0 -0.23679049525974152,0.4737396101838696 l -8.773648578263632 -4.479887478782581" fill="#f36d00" stroke="none" /><path d="M 118.70294669586154 109.54985784667822 l 1.8425331079255405 0.9408105334749545 a23.06882882658261,23.06882882658261 0 0,0 -0.1831136963614005,0.35114465721887017 l -1.8261113425891908 -0.9723014337983276" fill="#fd1400" stroke="none" /><path d="M 118.5362547648365 109.86951160357373 l 6.717782342809443 3.5768407169508 a28.61067599624366,28.61067599624366 0 0,0 -0.23454575825724483,0.4315377777540175 l -6.655391234936859 -3.691633328179421" fill="#f65400" stroke="none" /><line stroke="#006cb8" stroke-width="0.3" x1="174.33088141563837" x2="178.70328620479359" y1="141.23008692659167" y2="143.65538615756765" /><path d="M 175.20536237346943 141.71514677278685 a86.0,86.0 0 0,1 -30.301960400862466,31.631185727798858" fill="none" id="id125" stroke="none" /><text fill="#006cb8" style="font-size:6.75px; font-family:Arial;" text-anchor="middle"><textPath startOffset="22.145653131862474" xlink:href="#id125">五月</textPath></text><path d="M 118.36410011445183 110.18625677009912 l 3.525133191517708 1.9553319582123294 a25.03111486871142,25.03111486871142 0 0,0 -0.2116519446190681,0.37396870604425686 l -3.491047881877262 -2.015557434355709" fill="#fa2b00" stroke="none" /><path d="M 118.18653347947321 110.5 l 3.5691728849323794 2.0606629259000213 a25.121325851800044,25.121325851800044 0 0,0 -0.21882623498528542,0.37161478698946365 l -3.5332729398173286 -2.1216288811830344" fill="#fa2c00" stroke="none" /><path d="M 118.00360718960297 110.81064883170644 l 20.577883207301404 12.356427615376694 a45.002720277239014,45.002720277239014 0 0,0 -0.40337874489660647,0.6588888646990372 l -20.362736497949395 -12.707853596200287" fill="#c6e100" stroke="none" /><path d="M 117.81537515405839 111.11811171558189 l 3.502457855280518 2.1857927423580166 a25.128547073797414,25.128547073797414 0 0,0 -0.23152044256789583,0.3639885902401165 l -3.4644197210867325 -2.245595007276805" fill="#fa2c00" stroke="none" /><path d="M 117.423217284605 111.72311816256416 l 5.111327400024427 3.439129186030618 a27.160623129882893,27.160623129882893 0 0,0 -0.26360065468387284,0.38460123298477694 l -5.0515370085252345 -3.5263651540854393" fill="#f84300" stroke="none" /><path d="M 117.21940702142032 112.02048342749411 l 3.38950778622281 2.366139677224081 a25.13368842621201,25.13368842621201 0 0,0 -0.2500022871660935,0.3516595255432788 l -3.348390400526756 -2.4239764294768635" fill="#fa2c00" stroke="none" /><path d="M 117.01052211995028 112.31430620078461 l 3.5861743534971593 2.596113674051874 a25.427239851451453,25.427239851451453 0 0,0 -0.2589921548468128,0.3513725989332467 l -3.5410801790665185 -2.6572925822539983" fill="#fa2f00" stroke="none" /><path d="M 116.57777611688842 112.89097897827486 l 7.953084681010832 6.184366751756665 a31.07461900339474,31.07461900339474 0 0,0 -0.331068353623003,0.4182940496528327 l -7.845749896746268 -6.31998074532418" fill="#f36f00" stroke="none" /><path d="M 116.35404254752997 113.17365903436017 l 5.777156736297874 4.653668523293642 a28.4183671168557,28.4183671168557 0 0,0 -0.30929086650484583,0.3772845671444737 l -5.696419050554401 -4.752155372136609" fill="#f65200" stroke="none" /><path d="M 115.89218393027572 113.72728997021213 l 1.5730077946563013 1.3587266682406378 a23.07857924579213,23.07857924579213 0 0,0 -0.26154507238350183,0.297590281205696 l -1.5494516583142137 -1.385529227257627" fill="#fd1400" stroke="none" /><path d="M 115.6541949942343 113.99807769240083 l 5.655290736122217 5.056995848493683 a28.586535462367003,28.586535462367003 0 0,0 -0.33024567753025574,0.3629978501333989 l -5.567647357750081 -5.153331274184754" fill="#f65400" stroke="none" /><path d="M 115.41159269507618 114.26474011684316 l 3.6955270897143087 3.4205247032235917 a26.035564488334465,26.035564488334465 0 0,0 -0.3064065656512028,0.3253931545299599 l -3.6362646903268456 -3.4834593176980486" fill="#f93700" stroke="none" /><path d="M 115.16444852881244 114.52719865689866 l 5.56535803745707 5.331487106391857 a28.70700751593708,28.70700751593708 0 0,0 -0.3439553328796548,0.35292847234551744 l -5.473015903426608 -5.426238270805112" fill="#f65500" stroke="none" /><path d="M 114.13192950727249 115.5334660781643 l 1.4317551031037892 1.573749664888737 a23.127583296372002,23.127583296372002 0 0,0 -0.29596145127574397,0.2646505547196431 l -1.4045286250046674 -1.598095749491767" fill="#fd1400" stroke="none" /><path d="M 113.86319453409587 115.77377054828091 l 4.965310898521905 5.649612332968034 a28.521464739783397,28.521464739783397 0 0,0 -0.3705352784872894,0.320059548410982 l -4.86759614027176 -5.734016013843734" fill="#f65300" stroke="none" /><path d="M 113.59037401385872 116.0094264158162 l 2.3783173941642652 2.8016519101314796 a24.675003000397098,24.675003000397098 0 0,0 -0.32527019691153164,0.271351966899036 l -2.3298728630908387 -2.842066060942386" fill="#fb2700" stroke="none" /><path d="M 113.03279911837588 116.46651593811092 l 7.130039078509679 9.008571455696954 a32.48876916529674,32.48876916529674 0 0,0 -0.4402847912135719,0.3423681166864271 l -6.974344342660876 -9.129640624004175" fill="#f17f00" stroke="none" /><path d="M 112.45986205192187 116.90419585922612 l 0.25168726921699025 0.34146211863248743 a21.4241967231685,21.4241967231685 0 0,0 -0.297917727649953,0.2156694600585367 l -0.24578853119306934 -0.3457323500641012" fill="#ff0000" stroke="none" /><path d="M 112.16784306229584 117.11559508785304 l 0.9664692836994578 1.3594600817875917 a22.667991184121927,22.667991184121927 0 0,0 -0.3190842603455433,0.22274559505368335 l -0.942989932180156 -1.3758504926463972" fill="#fd0f00" stroke="none" /><path d="M 111.8722381534696 117.32195027204791 l 5.025388942515441 7.332192652698108 a29.889070993069893,29.889070993069893 0 0,0 -0.4257110513980663,0.28643739426119813 l -4.898781603020372 -7.417379721016427" fill="#f46200" stroke="none" /><path d="M 111.27062007382361 117.71928675628689 l 0.6675084027088081 1.0494340792569878 a22.243736046913824,22.243736046913824 0 0,0 -0.3239491615656911,0.20216823599338807 l -0.6493951123534021 -1.0607381120919235" fill="#fe0a00" stroke="none" /><path d="M 110.96478420261333 117.91015095944535 l 6.691692051155654 10.930376065381536 a33.81607831741697,33.81607831741697 0 0,0 -0.4976877195048524,0.2988471758330151 l -6.503071575093364 -11.043637241750474" fill="#ef8d00" stroke="none" /><line stroke="#006cb8" stroke-width="0.3" x1="143.1302829299769" x2="145.66735839644613" y1="173.24464959558577" y2="177.55315839532614" /><path d="M 143.63769802327073 174.10635135553383 a86.0,86.0 0 0,1 -40.68552437913181,11.842963189579606" fill="none" id="id126" stroke="none" /><text fill="#006cb8" style="font-size:6.75px; font-family:Arial;" text-anchor="middle"><textPath startOffset="21.407464694133747" xlink:href="#id126">六月</textPath></text><path d="M 110.34350942703117 118.27599006163325 l 10.864670381924798 19.196831532252116 a43.05809156263395,43.05809156263395 0 0,0 -0.6463958862870184,0.35854490183669296 l -10.533530307481685 -19.38050934952195" fill="#dde300" stroke="none" /><path d="M 109.71004243097381 118.62028667847754 l 0.9614918722184139 1.843787442434221 a23.079427506122826,23.079427506122826 0 0,0 -0.3528655195548011,0.1801756485510505 l -0.9296991309500304 -1.8600210426581079" fill="#fd1400" stroke="none" /><path d="M 109.3889696526874 118.78422872680471 l 4.2350825876823635 8.473002144720235 a30.47247010388125,30.47247010388125 0 0,0 -0.4699141487052355,0.22985855783001427 l -4.0890081897150585 -8.544454452647473" fill="#f36900" stroke="none" /><path d="M 109.06512990194946 118.94263497670748 l 3.284588030981112 6.863525707045567 a28.608975204621167,28.608975204621167 0 0,0 -0.4448168232799546,0.20819673341311296 l -3.1662824938296517 -6.918898672029213" fill="#f65400" stroke="none" /><path d="M 108.4095320186766 119.2426549942271 l 1.674047296866697 3.8305478243120707 a25.18037450313828,25.18037450313828 0 0,0 -0.39756804663397316,0.16969815825066947 l -1.6080441750622927 -3.8587206322221443" fill="#fa2d00" stroke="none" /><path d="M 107.74402155503746 119.51999308798841 l 1.9828317850455006 4.998031379904214 a26.37698238441358,26.37698238441358 0 0,0 -0.4223177671123528,0.16336158473798873 l -1.8967417554396184 -5.031332852780244" fill="#f93a00" stroke="none" /><path d="M 107.407793817531 119.65005319985036 l 2.659438577240444 7.054476786440396 a28.539115085773734,28.539115085773734 0 0,0 -0.4599021974865329,0.1688824572262609 l -2.537947228099784 -7.099090092675379" fill="#f65300" stroke="none" /><path d="M 107.06938296918513 119.77432235084164 l 2.523964811591964 7.059978785157513 a28.497579530557086,28.497579530557086 0 0,0 -0.4620600638496488,0.16072847560002065 l -2.4023989756972934 -7.102265693326125" fill="#f65300" stroke="none" /><path d="M 106.72888874123015 119.89276391827305 l 2.3867913649593504 7.0561245654700775 a28.448870176293504,28.448870176293504 0 0,0 -0.4639567226186676,0.1525117900762237 l -2.2653119046929486 -7.096057276948321" fill="#f65200" stroke="none" /><path d="M 106.38641147887787 120.00534299687104 l 2.2788176494457852 7.1383638300262575 a28.49328019289635,28.49328019289635 0 0,0 -0.46723466355415566,0.14475049312188273 l -2.1559423530200053 -7.176430910954785" fill="#f65300" stroke="none" /><path d="M 105.69591212413111 120.21278271476187 l 0.5598930212724404 1.9868628124626746 a23.064244179068133,23.064244179068133 0 0,0 -0.38200824280302814,0.104118045291167 l -0.5257033775347172 -1.9961813518979838" fill="#fd1400" stroke="none" /><path d="M 105.3480935250658 120.30758222061773 l 1.901105466342513 7.218807110771564 a28.464943274847002,28.464943274847002 0 0,0 -0.47359526232718413,0.12038606370370127 l -1.7769049107899315 -7.250378406310536" fill="#f65200" stroke="none" /><path d="M 104.9986988182912 120.39639698878246 l 2.2777853844573506 9.29414166475435 a30.569188865424817,30.569188865424817 0 0,0 -0.5107497837681177,0.12053555826971668 l -2.1179034469493536 -9.331873366670292" fill="#f36a00" stroke="none" /><path d="M 104.64783097203109 120.47920084513623 l 1.665063104900919 7.33657526495437 a28.523149058847803,28.523149058847803 0 0,0 -0.4784250045190819,0.10427050298487323 l -1.5388756837627011 -7.364077226072963" fill="#f65300" stroke="none" /><path d="M 104.29559338865022 120.5559693870025 l 2.2604251787503338 10.816952763446283 a32.0506103485444,32.0506103485444 0 0,0 -0.5395239713851558,0.10791990452710049 l -2.074404721834219 -10.854162064636244" fill="#f17a00" stroke="none" /><path d="M 103.94208987418118 120.62667999033965 l 1.3760961493754131 7.200316536416125 a28.33063427248375,28.33063427248375 0 0,0 -0.47847104537704765,0.08719336317682469 l -1.2522903704473083 -7.222878073524313" fill="#f65100" stroke="none" /><path d="M 103.58742460773223 120.69131181640829 l 4.97609905858903 28.70081702307554 a50.12899688683002,50.12899688683002 0 0,0 -0.8491434258108544,0.1397262275802013 l -4.4826781297251035 -28.78200924915141" fill="#8bda00" stroke="none" /><path d="M 103.2317021107853 120.74984581791261 l 0.8674490395661943 5.569645099969021 a26.636791141762593,26.636791141762593 0 0,0 -0.45241307940182435,0.06648914297204912 l -0.7717108545566845 -5.583715316239952" fill="#f83d00" stroke="none" /><path d="M 102.875027216393 120.80226474461374 l 1.0258906746781948 7.42283387510343 a28.49339138266344,28.49339138266344 0 0,0 -0.48509615946897355,0.06280540980671044 l -0.8983166933184459 -7.439350881110536" fill="#f65300" stroke="none" /><path d="M 102.51750503828377 120.84855314841334 l 0.2479029000874901 2.0529916363715617 a23.06790485924362,23.06790485924362 0 0,0 -0.39354295887406937,0.04409730939389936 l -0.21262403961262147 -2.056944706272432" fill="#fd1400" stroke="none" /><path d="M 102.15924093988457 120.88869738790638 l 0.9266077608441879 8.964089535369094 a30.011853479754894,30.011853479754894 0 0,0 -0.5129174913099515,0.04857381970535775 l -0.7725907061492212 -8.978675110579635" fill="#f46400" stroke="none" /><path d="M 101.80034050326958 120.92268563240118 l 0.30670877610495323 3.5644208923191454 a24.577592286851733,24.577592286851733 0 0,0 -0.42066422388892993,0.032562071395493386 l -0.24547555744078745 -3.5691607307096924" fill="#fb2600" stroke="none" /><path d="M 101.44090949804482 120.95050786540614 l 0.6537688494949965 9.505655589117668 a30.528111139543554,30.528111139543554 0 0,0 -0.5231292005853597,0.03147015366281495 l -0.4904952967771716 -9.515477720605174" fill="#f36900" stroke="none" /><path d="M 101.08105385017728 120.97215588758144 l 0.12030359024438252 2.333857511378515 a23.336956105116997,23.336956105116997 0 0,0 -0.4002557340501115,0.017188703414537355 l -0.08022209559344146 -2.3355787832188835" fill="#fd1700" stroke="none" /><path d="M 100.72087961077811 120.9876233191556 l 1.7249663790250689 50.220514021902794 a71.25012972752312,71.25012972752312 0 0,0 -1.2227427678348395,0.031493516332229694 l -0.8626102971194854 -50.24272525558507" fill="#00bf46" stroke="none" /><line stroke="#006cb8" stroke-width="0.3" x1="101.45913802915013" x2="101.54496967792366" y1="184.9874750549273" y2="189.98673829345242" /><path d="M 101.47630435890484 185.9873277026323 a86.0,86.0 0 0,1 -42.54439059252881,-10.42667462771756" fill="none" id="id127" stroke="none" /><text fill="#006cb8" style="font-size:6.75px; font-family:Arial;" text-anchor="middle"><textPath startOffset="22.145653131862474" xlink:href="#id127">七月</textPath></text><path d="M 100.0 121.0 l 2.0372929590929745e-16 1.6635759473763514 a22.66357594737635,22.66357594737635 0 0,0 -0.3890504181335141,-0.0033395299281428503 l 0.028557493284661752 -1.6633308156426434" fill="#fd0f00" stroke="none" /><path d="M 99.63950707515114 120.99690560180557 l -0.029852479310642336 1.7387572594614018 a22.73901350709266,22.73901350709266 0 0,0 -0.3902303675772245,-0.010050950026377299 l 0.059696160958610765 -1.7379885920849771" fill="#fd1000" stroke="none" /><path d="M 99.27912038922189 120.98762331915562 l -0.255031624199733 7.42496747466479 a28.429346076820757,28.429346076820757 0 0,0 -0.48759609999211645,-0.0209394745305554 l 0.3824534847926882 -7.419495431708405" fill="#f65200" stroke="none" /><path d="M 98.91894614982273 120.97215588758144 l -0.1703839689624004 3.3054034794273757 a24.3097919660743,24.3097919660743 0 0,0 -0.4165721874989104,-0.02505994835993843 l 0.22710050859375713 -3.3019915532427455" fill="#fb2200" stroke="none" /><path d="M 98.55909050195518 120.95050786540614 l -3.060027657735591 44.492130559719335 a65.59723591220893,65.59723591220893 0 0,0 -1.1227466878043446,-0.08690769438237674 l 3.823343340315172 -44.43304509834191" fill="#00c713" stroke="none" /><path d="M 98.19965949673042 120.92268563240118 l -0.2848572466630596 3.3104729973128344 a24.322705993149842,24.322705993149842 0 0,0 -0.41568713336187546,-0.039366003717652885 l 0.3416439434099503 -3.3050952380899976" fill="#fb2300" stroke="none" /><path d="M 97.84075906011543 120.88869738790638 l -0.7696840403834966 7.445994889635366 a28.485669871060107,28.485669871060107 0 0,0 -0.4859710873167917,-0.05445407397253341 l 0.8973910293010876 -7.431685055155861" fill="#f65200" stroke="none" /><path d="M 97.48249496171623 120.84855314841334 l -0.44722579546391417 3.7036711443593378 a24.730575137654828,24.730575137654828 0 0,0 -0.42103471852893953,-0.05451137372229469 l 0.5107383358836478 -3.6954481744366463" fill="#fb2700" stroke="none" /><path d="M 97.12497278360702 120.80226474461374 l -1.0506002604891405 7.6016201289650684 a28.67387708348438,28.67387708348438 0 0,0 -0.48701200383666743,-0.07157399338457253 l 1.1809373699334929 -7.582465062281614" fill="#f65500" stroke="none" /><path d="M 96.76829788921471 120.74984581791261 l -0.6390731757017841 4.103308228168812 a25.15277653374937,25.15277653374937 0 0,0 -0.4260670701777922,-0.07010917426021919 l 0.7094177489326399 -4.0917330554129245" fill="#fa2c00" stroke="none" /><path d="M 96.41257539226777 120.69131181640829 l -1.6754954740651467 9.663812648812181 a30.807984502177554,30.807984502177554 0 0,0 -0.520310572962843,-0.09481791885094823 l 1.8411407805790467 -9.633626556029867" fill="#f36c00" stroke="none" /><path d="M 95.70440661134978 120.55596938700252 l -0.8260269574038521 3.9528380163020755 a25.03822348533124,25.03822348533124 0 0,0 -0.41997158726776473,-0.09153085275671226 l 0.8937609612907532 -3.938075705411644" fill="#fa2b00" stroke="none" /><path d="M 95.35216902796893 120.47920084513623 l -0.4640201610117587 2.0445584468833657 a23.09655287377817,23.09655287377817 0 0,0 -0.3858970363264452,-0.09107064982988759 l 0.49904935107809173 -2.0362916534072504" fill="#fd1400" stroke="none" /><path d="M 95.00130118170881 120.39639698878247 l -0.4953486519804442 2.021191538222185 a23.081005891678302,23.081005891678302 0 0,0 -0.38401815645648796,-0.09761591367992081 l 0.5299721016623109 -2.012390392707001" fill="#fd1400" stroke="none" /><path d="M 93.61358852112213 120.00534299687104 l -0.9605421744013005 3.008884680451984 a24.1584851256674,24.1584851256674 0 0,0 -0.3939872308769657,-0.12951142837002874 l 1.0120521429260099 -2.9919523306799336" fill="#fc2100" stroke="none" /><path d="M 92.93061703081489 119.77432235084164 l -0.6969362894240372 1.9494548399970155 a23.070288473789084,23.070288473789084 0 0,0 -0.3717731378094842,-0.13652024579817584 l 0.7302985788876403 -1.93720374519012" fill="#fd1400" stroke="none" /><path d="M 92.59220618246901 119.65005319985036 l -0.7281350185463636 1.9314646443384522 a23.06415510017125,23.06415510017125 0 0,0 -0.369276604134711,-0.1428441234442788 l 0.7611838851746028 -1.918680632756133" fill="#fd1400" stroke="none" /><path d="M 91.92203290615298 119.3841803445677 l -1.1993195987553136 2.877930440042943 a24.11782794869832,24.11782794869832 0 0,0 -0.380791705279173,-0.16253733570922618 l 1.2485463792049176 -2.8569184546743127" fill="#fc2000" stroke="none" /><path d="M 91.26138138417905 119.09545874513695 l -2.066514275762125 4.515706638988621 a25.966093807142045,25.966093807142045 0 0,0 -0.40372488974778525,-0.18896363366669808 l 2.1437278793814003 -4.4795667737513964" fill="#f93600" stroke="none" /><path d="M 90.93487009805054 118.94263497670748 l -1.0378521393205753 2.168711805300969 a23.404256217116654,23.404256217116654 0 0,0 -0.36091564283608185,-0.17654192662463078 l 1.0749280314187266 -2.150576128579117" fill="#fc1800" stroke="none" /><path d="M 90.6110303473126 118.78422872680471 l -0.9256284096734939 1.8518768732369555 a23.07032265756441,23.07032265756441 0 0,0 -0.3527263138870617,-0.1801045691452231 l 0.9572819452741379 -1.8357143524188961" fill="#fd1400" stroke="none" /><path d="M 89.97174638481275 118.45085714620012 l -2.3543207032870668 4.331684921380995 a25.930144037657072,25.930144037657072 0 0,0 -0.3892680290390846,-0.21592041382207727 l 2.428332920482254 -4.290631592125768" fill="#f93500" stroke="none" /><line stroke="#006cb8" stroke-width="0.3" x1="58.13341422392154" x2="55.67067388415222" y1="173.97424548756322" y2="178.32567169271397" /><path d="M 57.64086615596768 174.84453072859336 a86.0,86.0 0 0,1 -31.369924170532247,-30.572349798747897" fill="none" id="id128" stroke="none" /><text fill="#006cb8" style="font-size:6.75px; font-family:Arial;" text-anchor="middle"><textPath startOffset="22.145653131862474" xlink:href="#id128">八月</textPath></text><path d="M 89.65649057296885 118.27599006163327 l -1.8442025814508365 3.258529253345302 a24.744208335060566,24.744208335060566 0 0,0 -0.3678727723351137,-0.2123914441352134 l 1.8998678216463498 -3.2263909119339167" fill="#fb2800" stroke="none" /><path d="M 89.03521579738668 117.91015095944536 l -1.0844502392405009 1.7713679661999044 a23.076963358624308,23.076963358624308 0 0,0 -0.3360839616034641,-0.20974124870288716 l 1.1146983296336777 -1.7524909206554697" fill="#fd1400" stroke="none" /><path d="M 88.72937992617639 117.7192867562869 l -1.7710340501936646 2.784359687841332 a24.2998818885259,24.2998818885259 0 0,0 -0.3500506383684169,-0.22689859459857867 l 1.818570320819091 -2.753547251538859" fill="#fb2200" stroke="none" /><path d="M 88.1277618465304 117.32195027204791 l -1.164965143359199 1.699718959566178 a23.0606281388816,23.0606281388816 0 0,0 -0.3246111846890379,-0.22660381748801606 l 1.1939714192220023 -1.6794703262730328" fill="#fd1400" stroke="none" /><path d="M 87.83215693770417 117.11559508785305 l -4.459501406639734 6.27284720710027 a28.696477433179897,28.696477433179897 0 0,0 -0.3990436355173251,-0.28887681874687937 l 4.566526052531013 -6.195369616980325" fill="#f65500" stroke="none" /><path d="M 87.54013794807813 116.9041958592261 l -4.606436587295211 6.249515922428096 a28.76374312412861,28.76374312412861 0 0,0 -0.39494949321814193,-0.2963774627012834 l 4.713039069424119 -6.169519432462798" fill="#f65600" stroke="none" /><path d="M 87.2517909369889 116.68781488649013 l -6.081314301951108 7.9606356340656586 a31.01768952091604,31.01768952091604 0 0,0 -0.4203488560973711,-0.3268658129586411 l 6.217073102683707 -7.855068769486224" fill="#f36f00" stroke="none" /><path d="M 86.96720088162412 116.46651593811092 l -2.07079004548849 2.616375575101089 a24.336703846984292,24.336703846984292 0 0,0 -0.32535765986347503,-0.26208509992571266 l 2.115398475707227 -2.5804421813819656" fill="#fb2300" stroke="none" /><path d="M 86.68645165197938 116.24036423190432 l -2.091284925332504 2.5510275707332504 a24.298668565582812,24.298668565582812 0 0,0 -0.32030929069747377,-0.2672134024945231 l 2.1347685501918705 -2.5147519843268573" fill="#fb2200" stroke="none" /><path d="M 86.40962598614128 116.0094264158162 l -6.438997094877016 7.585122387137231 a30.949611309779144,30.949611309779144 0 0,0 -0.4020804313652923,-0.3473075001469355 l 6.5682570060051715 -7.4734707545255725" fill="#f36e00" stroke="none" /><path d="M 85.86807049272751 115.53346607816431 l -4.958425731514523 5.450178467274514 a28.368204059340925,28.368204059340925 0 0,0 -0.3573991540662796,-0.3308033213441929 l 5.05125465689477 -5.3642573997979435" fill="#f65100" stroke="none" /><path d="M 85.60350026404147 115.28858382429668 l -2.042674343129176 2.169249365709886 a23.97962435261745,23.97962435261745 0 0,0 -0.29726457131430806,-0.2847727349224591 l 2.0796114003087984 -2.1338645004818444" fill="#fc1f00" stroke="none" /><path d="M 85.34317274990678 115.03919595460226 l -5.452491710493422 5.594736833268849 a28.81221774443945,28.81221774443945 0 0,0 -0.3512457400738746,-0.3482436577706314 l 5.547729370697259 -5.500313165269557" fill="#f65600" stroke="none" /><path d="M 85.08716467003676 114.78537596483092 l -2.41103907318798 2.390432025448352 a24.39518404224694,24.39518404224694 0 0,0 -0.2922928711135466,-0.29991823535901946 l 2.451718745452336 -2.348691098021595" fill="#fb2300" stroke="none" /><path d="M 84.83555147118756 114.52719865689866 l -19.909920549532934 19.073253505828912 a48.571614671366795,48.571614671366795 0 0,0 -0.5716281529542347,-0.60704928927551 l 20.234404536223423 -18.72866275660891" fill="#9ddc00" stroke="none" /><path d="M 84.3458050057657 113.99807769240083 l -4.428435268526264 3.9599341242031496 a26.940716892392352,26.940716892392352 0 0,0 -0.3053139309244395,-0.34739120768674064 l 4.495760263409296 -3.8833306387051088" fill="#f84100" stroke="none" /><path d="M 84.1078160697243 113.72728997021213 l -3.2753483645923303 2.829167907411637 a25.32805937548985,25.32805937548985 0 0,0 -0.28138923562459234,-0.33147581202260035 l 3.3234321637240347 -2.7725253129394822" fill="#fa2e00" stroke="none" /><path d="M 83.64595745247003 113.17365903436017 l -5.8943169982128145 4.748044536952535 a28.568810989865273,28.568810989865273 0 0,0 -0.3043715264328161,-0.3845634806145717 l 5.974954955287193 -4.6461611124232824" fill="#f65300" stroke="none" /><path d="M 83.4222238831116 112.89097897827486 l -1.9684058610109232 1.5306443033185062 a23.493490248014528,23.493490248014528 0 0,0 -0.24483351837257766,-0.3204949348112248 l 1.994391356737796 -1.496628455266411" fill="#fc1900" stroke="none" /><path d="M 83.20337586046588 112.60449989151573 l -50.38987241860234 37.813499674547174 a84.0,84.0 0 0,0 -0.8555919216646783,-1.1607747629244813 l 51.03156635985085 -36.942918602353814" fill="#00afaa" stroke="none" /><path d="M 82.98947788004972 112.3143062007846 l -1.6720433385900428 1.210430432833777 a23.064187675298324,23.064187675298324 0 0,0 -0.22941717000196127,-0.3227039803070777 l 1.6925756071219646 -1.1815492258171953" fill="#fd1400" stroke="none" /><path d="M 82.78059297857968 112.02048342749411 l -0.849515344589806 0.5930276872101848 a22.03602999883758,22.03602999883758 0 0,0 -0.21386519398135623,-0.3120357094575543 l 0.8595702753864872 -0.5783572426825795" fill="#fe0700" stroke="none" /><path d="M 82.37810715431573 111.42229804090323 l -6.191235312398013 4.013083929113441 a28.378091712332715,28.378091712332715 0 0,0 -0.2614599377025874,-0.4110584494098154 l 6.25921294172649 -3.9062118050249537" fill="#f65100" stroke="none" /><path d="M 81.99639281039703 110.81064883170644 l -15.54599761223168 9.334924893353545 a39.13336329873928,39.13336329873928 0 0,0 -0.3408819503991524,-0.5788920756903373 l 15.703953272760604 -9.06668164936965" fill="#e8c300" stroke="none" /><line stroke="#006cb8" stroke-width="0.3" x1="26.387840678322732" x2="22.057713659400548" y1="142.50000000000003" y2="145.00000000000006" /><path d="M 25.521815274538298 143.00000000000003 a86.0,86.0 0 0,1 -11.493303480769221,-40.785679425670985" fill="none" id="id129" stroke="none" /><text fill="#006cb8" style="font-size:6.75px; font-family:Arial;" text-anchor="middle"><textPath startOffset="21.40746469413373" xlink:href="#id129">九月</textPath></text><path d="M 81.4637452351635 109.86951160357371 l -2.429435047690571 1.2935373244219788 a23.752343267221598,23.752343267221598 0 0,0 -0.18853923645633483,-0.36154884573518337 l 2.4512823531218553 -1.2516422355822925" fill="#fc1c00" stroke="none" /><path d="M 81.29705330413844 109.54985784667822 l -8.055968630838953 4.113434983955455 a30.0453843449734,30.0453843449734 0 0,0 -0.23060560268140626,-0.4613656819319149 l 8.125394146732097 -3.9745374458597875" fill="#f46400" stroke="none" /><path d="M 80.83023694016515 108.57439118712176 l -1.9300199833584881 0.8632733896931377 a23.1142890250662,23.1142890250662 0 0,0 -0.1589009607850766,-0.36359649500681757 l 1.9445548261605328 -0.8300148249104707" fill="#fd1400" stroke="none" /><path d="M 80.68587082218212 108.24405325689762 l -51.33704032264891 21.912729824624392 a76.81809238460468,76.81809238460468 0 0,0 -0.5072706707501565,-1.217264944396796 l 51.70563683793555 -21.028232370786316" fill="#00b874" stroke="none" /><path d="M 80.16572619554312 106.89939002012753 l -1.9680238262915786 0.6845808462842846 a23.083691127770777,23.083691127770777 0 0,0 -0.12697632615133933,-0.37538294605187483 l 1.9794855740152852 -0.650696225758248" fill="#fd1400" stroke="none" /><path d="M 79.83685265289637 105.86919833188381 l -9.959400047471672 2.8990362039674777 a31.37275567134852,31.37275567134852 0 0,0 -0.1460797789200184,-0.5183856011088234 l 10.007698318466266 -2.7276426789556587" fill="#f27200" stroke="none" /><path d="M 79.64726062577567 105.17358676015961 l -22.82226856280015 5.801331422876807 a44.548065496567524,44.548065496567524 0 0,0 -0.18203712805593425,-0.7427736027904764 l 22.91849321737238 -5.408701995478231" fill="#cbe100" stroke="none" /><path d="M 79.48165901384964 104.47187691870673 l -7.281651185018129 1.5870019845335195 a28.452584738142146,28.452584738142146 0 0,0 -0.09991232055020408,-0.47811662249991477 l 7.3078212163927 -1.4617689107481955" fill="#f65200" stroke="none" /><path d="M 79.34024301695615 103.76489593502545 l -4.069857504535519 0.7416636114129695 a25.136883491194574,25.136883491194574 0 0,0 -0.07371712178484095,-0.42518076889217377 l 4.081989443812594 -0.6716898096002031" fill="#fa2c00" stroke="none" /><path d="M 79.2786578344484 103.40968896794605 l -2.0455883751106936 0.33660078868679494 a23.073097173634796,23.073097173634796 0 0,0 -0.06095528585438168,-0.39137666155679873 l 2.051065153103343 -0.3014359451985462" fill="#fd1400" stroke="none" /><path d="M 79.13060592940153 102.33845913500099 l -2.0484958326491536 0.22953823080175725 a23.061315836008774,23.061315836008774 0 0,0 -0.04070608591740534,-0.39379445566656024 l 2.052134311048225 -0.1943392528522656" fill="#fd1400" stroke="none" /><path d="M 79.06263194458094 101.62068470465958 l -7.632989869731985 0.5908416903190611 a28.65582315982091,28.65582315982091 0 0,0 -0.033753883548968036,-0.4907740588428502 l 7.64200771444602 -0.4597242073218676" fill="#f65400" stroke="none" /><path d="M 79.03789590574601 101.26102812881392 l -46.28416008056316 2.7843401367382414 a67.36783394078537,67.36783394078537 0 0,0 -0.059535234271168226,-1.154967639895008 l 46.32513690429091 -1.9894007034665029" fill="#00c424" stroke="none" /><line stroke="#006cb8" stroke-width="0.3" x1="15.003131293944662" x2="10.003315487706104" y1="100.72959589197737" y2="100.7725132973878" /><path d="M 14.003168132696942 100.73817937305945 a86.0,86.0 0 0,1 10.791469493833604,-42.45332614584628" fill="none" id="id130" stroke="none" /><text fill="#006cb8" style="font-size:6.75px; font-family:Arial;" text-anchor="middle"><textPath startOffset="22.145653131862435" xlink:href="#id130">十月</textPath></text><path d="M 79.00077361379809 100.18025310272382 l -4.832507360315466 0.04148126362430804 a25.83268539041546,25.83268539041546 0 0,0 0.0,-0.44346873269624937 l 4.832507360315466 0.041481263624306264" fill="#f93400" stroke="none" /><path d="M 79.00696218219943 99.45929381324524 l -2.0668978596335257 -0.05323595707270107 a23.06758333067451,23.06758333067451 0 0,0 0.013593741140158653,-0.3957669412231776 l 2.0656794314965166 0.0887091628600172" fill="#fd1400" stroke="none" /><path d="M 79.13060592940154 97.66154086499901 l -8.229737936488227 -0.9221593013741597 a29.281241711264343,29.281241711264343 0 0,0 0.060260675166058306,-0.499044835999749 l 8.2126951750625 1.063297814297345" fill="#f55b00" stroke="none" /><path d="M 79.22317932658666 96.9465228501225 l -7.277308015276894 -1.0695136703809112 a28.355479008218634,28.355479008218634 0 0,0 0.0749104602419356,-0.48097889189153165 l 7.257876062896691 1.1942807442038927" fill="#f65100" stroke="none" /><path d="M 79.34024301695615 96.23510406497455 l -11.322635985490916 -2.063361453405975 a32.50910709600599,32.50910709600599 0 0,0 0.1047624672277663,-0.5481614969406188 l 11.28554722598099 2.2574255153799085" fill="#f17f00" stroke="none" /><path d="M 79.48165901384962 95.52812308129327 l -6.721063304063972 -1.4648244650431388 a27.878837303689064,27.878837303689064 0 0,0 0.10592516234454624,-0.4667258097941653 l 6.694927280161764 1.579984608776312" fill="#f74c00" stroke="none" /><path d="M 79.64726062577567 94.8264132398404 l -7.106857169947236 -1.8065353014518026 a28.332870422244074,28.332870422244074 0 0,0 0.12386931160755531,-0.4703519522035228 l 7.074798377534955 1.92826775802811" fill="#f65100" stroke="none" /><path d="M 79.73907114497095 94.47779374421319 l -1.9962463130666095 -0.5440858095393565 a23.069064694632367,23.069064694632367 0 0,0 0.10741561582238925,-0.3811801262860089 l 1.9866122051696382 0.5782738597283785" fill="#fd1400" stroke="none" /><path d="M 79.83685265289637 94.1308016681162 l -7.052152932127635 -2.052778939364273 a28.344845971973402,28.344845971973402 0 0,0 0.14000151110206552,-0.4660194974350174 l 7.0158751010219405 2.173536040390014" fill="#f65100" stroke="none" /><path d="M 80.16572619554312 93.10060997987247 l -1.9522446070451904 -0.679092014736064 a23.066984511363188,23.066984511363188 0 0,0 0.1333050151380015,-0.3728778525385959 l 1.9402994218632459 0.7125048236555813" fill="#fd1400" stroke="none" /><path d="M 80.41425534168474 92.42381321644754 l -6.8131630143567685 -2.6354778173646545 a28.30513063442538,28.30513063442538 0 0,0 0.179186741514155,-0.4516676420586953 l 6.766917597876482 2.7520464766369326" fill="#f65000" stroke="none" /><path d="M 80.5471966667186 92.08871423366112 l -6.869419429079719 -2.7937330790421733 a28.415785043375543,28.415785043375543 0 0,0 0.18764452346300323,-0.45027854672097845 l 6.820449061080238 2.9112441352044156" fill="#f65200" stroke="none" /><path d="M 80.83023694016515 91.42560881287825 l -38.50038250622652 -17.22073138993971 a63.17621418205062,63.17621418205062 0 0,0 0.45130540852154805,-0.986183765278187 l 38.199092632849926 17.879104137432567" fill="#04ca00" stroke="none" /><path d="M 80.9802524753101 91.09779779509293 l -7.84258701885575 -3.6707267202576346 a29.6591226924636,29.6591226924636 0 0,0 0.21978927055520983,-0.4592750428241349 l 7.778418490340634 3.8048142651468564" fill="#f46000" stroke="none" /><path d="M 81.29705330413844 90.45014215332179 l -6.6964153605190075 -3.4192373969295065 a28.51885383932659,28.51885383932659 0 0,0 0.2263744198618475,-0.43410279867118007 l 6.63673287168222 3.533686438705173" fill="#f65300" stroke="none" /><path d="M 81.46374523516351 90.13048839642627 l -6.3665837195674095 -3.389847231415542 a28.21279782820761,28.21279782820761 0 0,0 0.23128401649942268,-0.42553654029726234 l 6.307454353452636 3.498638605187424" fill="#f64f00" stroke="none" /><path d="M 81.63589988554816 89.8137432299009 l -6.602006533323031 -3.6620217340994183 a28.549628695972835,28.549628695972835 0 0,0 0.24140292844920275,-0.42653584378789466 l 6.538170239852459 3.7748143479864185" fill="#f65300" stroke="none" /><line stroke="#006cb8" stroke-width="0.3" x1="26.387840678322718" x2="22.05771365940052" y1="57.49999999999999" y2="54.99999999999999" /><path d="M 25.521815274538284 56.99999999999999 a86.0,86.0 0 0,1 29.574782752854787,-30.34633250058573" fill="none" id="id131" stroke="none" /><text fill="#006cb8" style="font-size:6.75px; font-family:Arial;" text-anchor="middle"><textPath startOffset="21.40746469413373" xlink:href="#id131">十一月</textPath></text><path d="M 81.99639281039701 89.18935116829357 l -0.8580667626827552 -0.515244436730404 a22.000877314560828,22.000877314560828 0 0,0 0.1972033295565215,-0.32211681842499956 l 0.8490954686708406 0.5298983712799467" fill="#fe0700" stroke="none" /><path d="M 82.18462484594161 88.88188828441811 l -41.19848595475729 -25.710902262615456 a69.56300793939867,69.56300793939867 0 0,0 0.6409148263600667,-1.0076245601611453 l 40.751053436771336 26.41434049745527" fill="#00c137" stroke="none" /><path d="M 84.10781606972428 86.27271002978789 l -6.960740896624978 -6.0125222005171945 a30.19795287233304,30.19795287233304 0 0,0 0.34222755593881454,-0.38939213681241763 l 6.8565022767275705 6.1311266151409125" fill="#f46600" stroke="none" /><path d="M 84.83555147118756 85.47280134310135 l -1.4906997611951691 -1.4280566502321392 a23.06434773579927,23.06434773579927 0 0,0 0.2763473482464143,-0.2835567241734474 l 1.4659656117979523 1.453436066473317" fill="#fd1400" stroke="none" /><path d="M 85.08716467003674 85.21462403516908 l -1.956850887867438 -1.9401257671035088 a23.755603997225755,23.755603997225755 0 0,0 0.2896012650229724,-0.2871260554089298 l 1.923257702714489 1.973431832741112" fill="#fc1c00" stroke="none" /><path d="M 86.13680546590413 84.22622945171909 l -1.361611936435422 -1.5492644360078245 a23.06257299461669,23.06257299461669 0 0,0 0.29961634106660023,-0.25880145936392057 l 1.3348161156059732 1.572410027836456" fill="#fd1400" stroke="none" /><path d="M 86.68645165197937 83.75963576809568 l -4.826466951661963 -5.887504908478645 a28.612982154375857,28.612982154375857 0 0,0 0.3825272713181014,-0.30813689208910133 l 4.7246889099886165 5.969490094361145" fill="#f65400" stroke="none" /><path d="M 87.25179093698888 83.31218511350988 l -1.821588055247506 -2.384517238081114 a24.000684172272447,24.000684172272447 0 0,0 0.3295488354843702,-0.2472995898821814 l 1.7803862308523837 2.4154358552272965" fill="#fc1f00" stroke="none" /><path d="M 87.54013794807813 83.09580414077388 l -4.398847562988148 -5.967881542329083 a28.413870108497917,28.413870108497917 0 0,0 0.3951137924023275,-0.2860319153924751 l 4.295752760211853 6.042514229094638" fill="#f65200" stroke="none" /><path d="M 87.83215693770416 82.88440491214696 l -1.1968050733301638 -1.6834562156443849 a23.065518630644743,23.065518630644743 0 0,0 0.3246800253257883,-0.2266518735989037 l 1.16772995683061 1.7037529050484153" fill="#fd1400" stroke="none" /><path d="M 88.12776184653039 82.6780497279521 l -4.139355090928662 -6.0394427837905305 a28.32182557204667,28.32182557204667 0 0,0 0.40338872173660795,-0.2714179346510516 l 4.035070081095065 6.109610392498691" fill="#f65100" stroke="none" /><path d="M 88.72937992617638 82.28071324371311 l -5.162775663451788 -8.116740857191026 a30.619549609723116,30.619549609723116 0 0,0 0.4459312681407959,-0.27829409225385043 l 5.022680266521293 8.204170746286412" fill="#f36a00" stroke="none" /><path d="M 89.03521579738668 82.08984904055464 l -0.7527041990981195 -1.229485741310138 a22.441595920993425,22.441595920993425 0 0,0 0.3302839137977793,-0.19832600040792903 l 0.7314875287429059 1.2422257422539906" fill="#fe0c00" stroke="none" /><line stroke="#006cb8" stroke-width="0.3" x1="56.869717070023135" x2="54.33264160355391" y1="26.7553504044142" y2="22.446841604673864" /><path d="M 56.362301976729285 25.89364864446614 a86.0,86.0 0 0,1 42.16139366436587,-11.88097634709845" fill="none" id="id132" stroke="none" /><text fill="#006cb8" style="font-size:6.75px; font-family:Arial;" text-anchor="middle"><textPath startOffset="22.145653131862474" xlink:href="#id132">十二月</textPath></text><path d="M 89.34428304082924 81.90426304109057 l -2.7156225629222965 -4.611720803641316 a26.35187580900293,26.35187580900293 0 0,0 0.39177400540847795,-0.22619082748408145 l 2.636056089653419 4.657658528401572" fill="#f93a00" stroke="none" /><path d="M 89.65649057296885 81.72400993836675 l -3.6639814192732185 -6.473904091937032 a28.43883015213941,28.43883015213941 0 0,0 0.4269288803573056,-0.23681025319983612 l 3.55230835075981 6.535847260570014" fill="#f65200" stroke="none" /><path d="M 90.28995756902619 81.37971332152246 l -3.4151809086189604 -6.549059700758778 a28.386043839749266,28.386043839749266 0 0,0 0.4339993314375404,-0.2216031509996776 l 3.302254355467838 6.60672080343129" fill="#f65100" stroke="none" /><path d="M 90.61103034731259 81.2157712731953 l -3.339739236712667 -6.681715676047418 a28.469885042273134,28.469885042273134 0 0,0 0.43903240360132073,-0.21475274879570966 l 3.224546583849293 6.7380621749403415" fill="#f65200" stroke="none" /><path d="M 90.93487009805054 81.0573650232925 l -3.1672516662753925 -6.618337833274863 a28.337157405486245,28.337157405486245 0 0,0 0.4405905576043059,-0.20621862768024313 l 3.053172394799564 6.671732692525649" fill="#f65100" stroke="none" /><path d="M 91.26138138417902 80.90454125486306 l -1.3395870251488171 -2.9272394069170358 a24.219196164161957,24.219196164161957 0 0,0 0.3795339452969671,-0.16976070625444262 l 1.2891396769962313 2.949803864081324" fill="#fb2100" stroke="none" /><path d="M 91.92203290615298 80.6158196554323 l -0.5643736802537509 -1.3542913795847238 a22.46718192184223,22.46718192184223 0 0,0 0.3572769129724757,-0.14530141017797826 l 0.5410423060908344 1.3637800463419933" fill="#fe0d00" stroke="none" /><path d="M 92.25597844496254 80.48000691201159 l -2.7067149614832706 -6.822689860017133 a28.339986567337707,28.339986567337707 0 0,0 0.45374712211903456,-0.1755191344340176 l 2.5891955768707065 6.868148882589191" fill="#f65100" stroke="none" /><path d="M 92.592206182469 80.34994680014964 l -0.7492557652459311 -1.9874899342547114 a23.12402929370526,23.12402929370526 0 0,0 0.3726391604979817,-0.136838261325057 l 0.7150274530938223 2.0000590445884905" fill="#fd1400" stroke="none" /><path d="M 92.93061703081487 80.22567764915836 l -2.540188906415584 -7.105360465891362 a28.54577411738045,28.54577411738045 0 0,0 0.4628414914035788,-0.161000296666935 l 2.417841642967001 7.147919195126883" fill="#f65300" stroke="none" /><path d="M 93.95794788825049 79.88797359093562 l -3.2679863276386407 -10.878063629758804 a32.35834508063188,32.35834508063188 0 0,0 0.5333579602648117,-0.15525272899088924 l 3.0807683549922045 10.932560053052214" fill="#f17d00" stroke="none" /><path d="M 95.00130118170881 79.60360301121753 l -1.7849929885717337 -7.283380523723624 a28.498922044041187,28.498922044041187 0 0,0 0.4761597808727166,-0.11237241177009594 l 1.659701053959111 7.312949079139952" fill="#f65300" stroke="none" /><path d="M 95.70440661134978 79.44403061299748 l -1.9648159171769577 -9.402355435060397 a30.6054562263123,30.6054562263123 0 0,0 0.5151969684728214,-0.10305382262718013 l 1.8031224631731597 9.434698654350443" fill="#f36a00" stroke="none" /><path d="M 96.76829788921471 79.25015418208739 l -0.32792758476303735 -2.1055303335554116 a23.130914002575064,23.130914002575064 0 0,0 0.39286744328886586,-0.05773798503003728 l 0.2917350358664866 2.1108493918843334" fill="#fd1400" stroke="none" /><path d="M 97.48249496171623 79.15144685158666 l -0.8681632496638869 -7.18963711169206 a28.24186365695231,28.24186365695231 0 0,0 0.4818117057224368,-0.053988006589246164 l 0.7446156423406508 7.203480878788278" fill="#f65000" stroke="none" /><path d="M 97.84075906011542 79.11130261209362 l -0.21271798841278064 -2.05785357569048 a23.068818571450013,23.068818571450013 0 0,0 0.3942575741659653,-0.03733660218157152 l 0.17736085086179978 2.0612019333772347" fill="#fd1400" stroke="none" /><path d="M 98.1996594967304 79.07731436759882 l -5.282387346802248 -61.3893480955403 a82.61619653692586,82.61619653692586 0 0,0 1.41403916995788,-0.10945557476346633 l 4.227779182069151 61.470981437298825" fill="#00b1a0" stroke="none" /><path d="M 98.5590905019552 79.04949213459386 l -3.412918049516822 -49.62307940742379 a70.74030578402393,70.74030578402393 0 0,0 1.2122046937264828,-0.07292322420478438 l 2.5605690036578554 49.67435460945327" fill="#00c042" stroke="none" /><path d="M 98.9189461498227 79.02784411241856 l -2.199060368293473 -42.66118366119266 a63.71782365567575,63.71782365567575 0 0,0 1.0928342224454326,-0.04693100368806119 l 1.46640038524722 42.69264723330655" fill="#00c902" stroke="none" /><path d="M 99.63950707515114 79.00309439819443 l -0.08094237736139248 -4.714487690307492 a25.71518248326762,25.71518248326762 0 0,0 0.44143530221024346,-0.0037891911545613124 l 1.1548866271058714e-15 4.715182483267618" fill="#fa3300" stroke="none" /></svg>