<?xml version="1.0" encoding="utf-8" ?>
<svg baseProfile="full" height="200mm" version="1.1" viewBox="0,0,200,200" width="200mm" xmlns="http://www.w3.org/2000/svg" xmlns:ev="http://www.w3.org/2001/xml-events" xmlns:xlink="http://www.w3.org/1999/xlink"><defs /><rect fill="#f5f5f5" height="200" rx="1" ry="1" width="200" x="0" y="0" /><text alignment-baseline="middle" fill="#006cb8" style="dominant-baseline: central; font-size:9.0px; font-family:Arial;" text-anchor="middle" x="100.0" y="100.0">2024</text><line stroke="#006cb8" stroke-width="0.3" x1="100.0" x2="100.0" y1="15.0" y2="10.0" /><path d="M 100.0 14.0 a86.0,86.0 0 0,1 42.35913384403234,11.155469271406648" fill="none" id="id25" stroke="none" /><text fill="#006cb8" style="font-size:6.75px; font-family:Arial;" text-anchor="middle"><textPath startOffset="22.145653131862478" xlink:href="#id25">一月</textPath></text><path d="M 104.64783097203109 79.52079915486377 l 1.7922676773514623 -7.897062081990222 a29.097889413550085,29.097889413550085 0 0,0 0.4861673232974914,0.11473416453321711 l -1.9275671543888386 7.865131773810777" fill="#f84200" stroke="none" /><line stroke="#006cb8" stroke-width="0.3" x1="143.13028292997686" x2="145.6673583964461" y1="26.7553504044142" y2="22.446841604673864" /><path d="M 143.63769802327073 25.89364864446614 a86.0,86.0 0 0,1 29.32050498858742,28.57503671076993" fill="none" id="id26" stroke="none" /><text fill="#006cb8" style="font-size:6.75px; font-family:Arial;" text-anchor="middle"><textPath startOffset="20.669276256404974" xlink:href="#id26">二月</textPath></text><path d="M 113.86319453409587 84.22622945171908 l 1.827095599407263 -2.078899396812335 a23.76768875263099,23.76768875263099 0 0,0 0.30415281901945934,0.27197532626655113 l -1.862513445250098 2.0472285406623967" fill="#ff0100" stroke="none" /><path d="M 114.13192950727249 84.46653392183569 l 10.563416431735623 -11.611045096669036 a36.697201500495055,36.697201500495055 0 0,0 0.46233271395826125,0.4279282578131249 l -10.76117891700785 11.427999092723537" fill="#ee9800" stroke="none" /><path d="M 114.39649973595853 84.71141617570332 l 1.837563615889884 -1.9514288812745013 a23.680431816165925,23.680431816165925 0 0,0 0.29355561658754514,0.28121964019417056 l -1.8707917183427414 1.9195971107747505" fill="#ff0000" stroke="none" /><path d="M 116.35404254752997 86.82634096563983 l 6.552845958526508 -5.2785088525620445 a29.41441892603126,29.41441892603126 0 0,0 0.3133806160440688,0.3959461710346508 l -6.6424930052121365 5.165242737612715" fill="#f74600" stroke="none" /><line stroke="#006cb8" stroke-width="0.3" x1="172.87174338648825" x2="177.1583165268699" y1="56.24261187166439" y2="53.66864786411523" /><path d="M 173.72905801456457 55.72781907015455 a86.0,86.0 0 0,1 12.242430191666344,42.057860355516425" fill="none" id="id27" stroke="none" /><text fill="#006cb8" style="font-size:6.75px; font-family:Arial;" text-anchor="middle"><textPath startOffset="22.145653131862474" xlink:href="#id27">三月</textPath></text><path d="M 120.77682067341334 96.94652285012252 l 15.39976510934016 -2.2632351510364908 a36.56518547180655,36.56518547180655 0 0,0 0.08593773362901577,0.6218026307054518 l -15.436347359524389 1.9985442121309533" fill="#ee9700" stroke="none" /><path d="M 120.96210409425399 98.7389718711861 l 13.196449911327523 -0.7938656569895294 a34.22030683999141,34.22030683999141 0 0,0 0.030241643012314995,0.5866797953190526 l -13.208133143796411 0.5672140682937462" fill="#f17d00" stroke="none" /><line stroke="#006cb8" stroke-width="0.3" x1="184.99686870605535" x2="189.99668451229388" y1="99.2704041080226" y2="99.22748670261217" /><path d="M 185.99683186730306 99.26182062694052 a86.0,86.0 0 0,1 -10.086455211305974,41.156179273409016" fill="none" id="id28" stroke="none" /><text fill="#006cb8" style="font-size:6.75px; font-family:Arial;" text-anchor="middle"><textPath startOffset="21.40746469413373" xlink:href="#id28">四月</textPath></text><path d="M 120.99303781780057 100.54070618675476 l 48.11393975251965 1.2392444161308391 a69.12989637670127,69.12989637670127 0 0,0 -0.04073829073987112,1.1860508855170309 l -48.085576774782936 -2.065001566211981" fill="#00c32f" stroke="none" /><path d="M 120.9064616781168 101.97986365728391 l 6.779906491470013 0.6420641937844115 a27.810240705145247,27.810240705145247 0 0,0 -0.04908852797374849,0.47488697862324886 l -6.767885571014598 -0.7583556946905917" fill="#fa3300" stroke="none" /><path d="M 120.86939407059847 102.33845913500097 l 8.6550936354492 0.9698212946498175 a29.709259393424304,29.709259393424304 0 0,0 -0.06114153379782328,0.5063396090871036 l -8.637170015391712 -1.1182545806603297" fill="#f74900" stroke="none" /><path d="M 120.77682067341334 103.0534771498775 l 7.039756777217414 1.034601818912321 a28.11537605514109,28.11537605514109 0 0,0 -0.07427614816717666,0.47690615334679853 l -7.020959136911969 -1.15529615419057" fill="#f93600" stroke="none" /><path d="M 120.35273937422433 105.17358676015961 l 14.78337754451278 3.7578767618669544 a36.253520556939776,36.253520556939776 0 0,0 -0.15849783547566784,0.6018420976795502 l -14.71669022823238 -4.011099363919308" fill="#ee9400" stroke="none" /><path d="M 120.26092885502905 105.52220625578681 l 11.922336216521208 3.2494857520870846 a33.35723506747323,33.35723506747323 0 0,0 -0.15532003548191625,0.5511760118532336 l -11.864797688964712 -3.453669687843327" fill="#f27300" stroke="none" /><path d="M 119.94978838288452 106.5578916946017 l 15.481859914434738 5.089194862686483 a37.29686751374557,37.29686751374557 0 0,0 -0.20515866321531787,0.6065151334906282 l -15.392215829647053 -5.354211670651272" fill="#ed9f00" stroke="none" /><path d="M 119.71291397450082 107.23885506374661 l 13.0399454426417 4.788448588602773 a34.89134324076559,34.89134324076559 0 0,0 -0.21129086955827617,0.5604741343687317 l -12.955823889268984 -5.011591003165663" fill="#f08500" stroke="none" /><path d="M 119.4528033332814 107.91128576633889 l 6.376667680453675 2.593335232600462 a27.88384182964639,27.88384182964639 0 0,0 -0.18413181984783006,0.441849336799417 l -6.33121001606936 -2.7024170788411572" fill="#f93400" stroke="none" /><path d="M 119.31412917781788 108.2440532568976 l 28.792841125943685 12.289951748499671 a52.30607950677127,52.30607950677127 0 0,0 -0.3595821735859293,0.8227943829717584 l -28.57762507034079 -12.782408201247275" fill="#80d900" stroke="none" /><path d="M 118.8641267826498 109.22738970284198 l 11.537327332113476 5.643484940982088 a33.84363049326102,33.84363049326102 0 0,0 -0.2597580619111368,0.5196901288496159 l -11.438749356990607 -5.840706925995449" fill="#f27900" stroke="none" /><path d="M 118.70294669586154 109.54985784667822 l 10.161553313866975 5.188561525994418 a32.40957214182856,32.40957214182856 0 0,0 -0.25725781733414727,0.4933257854529116 l -10.070987427557878 -5.362233554551832" fill="#f36900" stroke="none" /><line stroke="#006cb8" stroke-width="0.3" x1="174.33088141563837" x2="178.70328620479359" y1="141.23008692659167" y2="143.65538615756765" /><path d="M 175.20536237346943 141.71514677278685 a86.0,86.0 0 0,1 -30.301960400862466,31.631185727798858" fill="none" id="id29" stroke="none" /><text fill="#006cb8" style="font-size:6.75px; font-family:Arial;" text-anchor="middle"><textPath startOffset="22.145653131862474" xlink:href="#id29">五月</textPath></text><path d="M 118.36410011445183 110.18625677009912 l 38.8821090578843 21.56725045922179 a65.463071162033,65.463071162033 0 0,0 -0.5535265362670595,0.9780283516955814 l -38.50614915659587 -22.23153558101649" fill="#00c80c" stroke="none" /><path d="M 118.18653347947321 110.5 l 39.3679217706799 22.729080231738156 a66.45816046347633,66.45816046347633 0 0,0 -0.5789021297706876,0.983102376444702 l -38.97194593077945 -23.40153377647641" fill="#00c615" stroke="none" /><path d="M 118.00360718960297 110.81064883170644 l 12.641856253843711 7.591071450400277 a35.74587723087133,35.74587723087133 0 0,0 -0.32040567778543394,0.523358595241011 l -12.509682611602871 -7.806967161765845" fill="#ef8e00" stroke="none" /><path d="M 117.81537515405839 111.11811171558189 l 38.632045880198824 24.10925384300375 a66.53779847287501,66.53779847287501 0 0,0 -0.6130422306030092,0.9638042101159487 l -38.212485957969925 -24.76887172779837" fill="#00c616" stroke="none" /><path d="M 117.423217284605 111.72311816256416 l 9.625138924973173 6.476223025024069 a32.601067364466324,32.601067364466324 0 0,0 -0.3164015295073025,0.46163928732542236 l -9.51254765865055 -6.640497047419536" fill="#f36b00" stroke="none" /><path d="M 117.21940702142032 112.02048342749411 l 9.324965784162822 6.5095503306845695 a32.37230110327382,32.37230110327382 0 0,0 -0.3220040441102761,0.4529390137123284 l -9.211846641522586 -6.668666571106402" fill="#f36800" stroke="none" /><path d="M 117.01052211995028 112.31430620078461 l 18.445719306385158 13.353278284512468 a43.77179399330633,43.77179399330633 0 0,0 -0.4458427778267119,0.6048713547066643 l -18.213774508974616 -13.66795594848801" fill="#e4e200" stroke="none" /><path d="M 116.57777611688842 112.89097897827486 l 22.160673894501052 17.232274058001764 a49.072170145332564,49.072170145332564 0 0,0 -0.5228138944180881,0.6605582766148016 l -21.861593569441403 -17.610152278531245" fill="#a6dd00" stroke="none" /><path d="M 115.89218393027572 113.72728997021213 l 8.675123665226566 7.493365204082962 a32.463345614991084,32.463345614991084 0 0,0 -0.3679008134884022,0.41860359112896095 l -8.54521178777958 -7.641181073023216" fill="#f36900" stroke="none" /><path d="M 115.41159269507618 114.26474011684316 l 40.76159666869552 37.7283253412406 a76.54218483311497,76.54218483311497 0 0,0 -0.9008073549802518,0.9566261944741814 l -40.107933479979 -38.42249299565928" fill="#00b970" stroke="none" /><path d="M 114.13192950727249 115.5334660781643 l 7.896116357426235 8.679215072803693 a32.73360250775511,32.73360250775511 0 0,0 -0.4188887519950371,0.37457290503018703 l -7.745962578607821 -8.813483507717267" fill="#f36c00" stroke="none" /><path d="M 112.45986205192187 116.90419585922612 l 2.7761126534989518 3.766329982343889 a25.678893352152784,25.678893352152784 0 0,0 -0.3570821186385852,0.25849991650657705 l -2.711049524486399 -3.8134306702235437" fill="#fc1900" stroke="none" /><path d="M 112.16784306229584 117.11559508785304 l 5.330069299858543 7.497409973116657 a30.198956193301697,30.198956193301697 0 0,0 -0.4250933186746958,0.2967481508458011 l -5.200580890010088 -7.58780293976758" fill="#f64f00" stroke="none" /><path d="M 111.8722381534696 117.32195027204791 l 7.761938117747075 11.324899682123979 a34.72956795219379,34.72956795219379 0 0,0 -0.4946544136804056,0.3328255652492552 l -7.566387415969666 -11.456474921430354" fill="#f08300" stroke="none" /><path d="M 111.27062007382361 117.71928675628689 l 3.6813027632466575 5.787619391960327 a27.859192974460093,27.859192974460093 0 0,0 -0.40573050259806936,0.2532058413194228 l -3.5814081318588733 -5.849961030121298" fill="#f93300" stroke="none" /><path d="M 110.96478420261333 117.91015095944535 l 30.92220751724899 50.50910208531313 a80.22290360328843,80.22290360328843 0 0,0 -1.1806796036965164,0.7089641783393598 l -30.050595156995037 -51.032480264188415" fill="#00b48d" stroke="none" /><line stroke="#006cb8" stroke-width="0.3" x1="143.1302829299769" x2="145.66735839644613" y1="173.24464959558577" y2="177.55315839532614" /><path d="M 143.63769802327073 174.10635135553383 a86.0,86.0 0 0,1 -40.68552437913181,11.842963189579606" fill="none" id="id30" stroke="none" /><text fill="#006cb8" style="font-size:6.75px; font-family:Arial;" text-anchor="middle"><textPath startOffset="21.407464694133747" xlink:href="#id30">六月</textPath></text><path d="M 110.34350942703117 118.27599006163325 l 2.2431684634102944 3.963463738595206 a25.554212287805388,25.554212287805388 0 0,0 -0.3836244733725521,0.21279002862719348 l -2.174799801881648 -4.001386682655543" fill="#fd1700" stroke="none" /><path d="M 109.71004243097381 118.62028667847754 l 10.605237883545403 20.336941994728395 a43.93604761643849,43.93604761643849 0 0,0 -0.6717461369111546,0.34299836388755844 l -10.254564524920665 -20.51599831028879" fill="#e4e400" stroke="none" /><path d="M 109.3889696526874 118.78422872680471 l 5.089280205599863 10.181969584854773 a32.38302585598479,32.38302585598479 0 0,0 -0.4993767153020036,0.24427017554053335 l -4.91374324103579 -10.26783351049253" fill="#f36800" stroke="none" /><path d="M 108.4095320186766 119.2426549942271 l 18.464711290447067 42.250872954759004 a67.10945487076104,67.10945487076104 0 0,0 -1.059578159979868,0.4522709100833752 l -17.736698055296767 -42.56161851450178" fill="#00c51c" stroke="none" /><path d="M 107.74402155503746 119.51999308798841 l 21.870598538676713 55.12819524984823 a80.30801793978077,80.30801793978077 0 0,0 -1.2857991988343591,0.497374752221911 l -20.921027077348825 -55.49550989020818" fill="#00b48e" stroke="none" /><path d="M 105.69591212413111 120.21278271476187 l 6.175609879814247 21.915060821073293 a43.768575892642055,43.768575892642055 0 0,0 -0.7249297500029636,0.19758282698271826 l -5.798498728876588 -22.017844142200154" fill="#e4e200" stroke="none" /><path d="M 104.9986988182912 120.39639698878246 l 5.40891948425718 22.07023729406916 a43.72337528193596,43.72337528193596 0 0,0 -0.7305298341140892,0.172403051721315 l -5.029257496403211 -22.1598364894367" fill="#e4e200" stroke="none" /><path d="M 104.29559338865022 120.5559693870025 l 8.262075496119337 39.53702215392857 a61.391063520335955,61.391063520335955 0 0,0 -1.0334265100681388,0.2067142448110262 l -7.58215250052024 -39.67302579540245" fill="#1dcd00" stroke="none" /><path d="M 103.2317021107853 120.74984581791261 l 6.61182784616429 42.45267777764083 a63.96447506905575,63.96447506905575 0 0,0 -1.0864058281007283,0.1596642442914427 l -5.882096912455876 -42.559923095231156" fill="#03ca00" stroke="none" /><path d="M 102.51750503828377 120.84855314841334 l 2.7343645170418576 22.64446072352091 a43.80895330284007,43.80895330284007 0 0,0 -0.7473892931835563,0.08374652920610198 l -2.345239322257502 -22.688063013233986" fill="#e4e200" stroke="none" /><path d="M 102.15924093988457 120.88869738790638 l 0.7665923983528817 7.416086057500742 a28.45560167373964,28.45560167373964 0 0,0 -0.4863203745165356,0.04605504509210318 l -0.6391724604513309 -7.428152858098029" fill="#f93a00" stroke="none" /><path d="M 101.80034050326958 120.92268563240118 l 3.382992376449806 39.31549940731985 a60.46077965608491,60.46077965608491 0 0,0 -1.0348323242123605,0.08010256663106259 l -2.7075910574622095 -39.36777974094596" fill="#27ce00" stroke="none" /><path d="M 101.44090949804482 120.95050786540614 l 0.7876853204984657 11.452771686882716 a32.479826979357796,32.479826979357796 0 0,0 -0.5565737704896304,0.03348209593806252 l -0.5909671978763702 -11.46460576064547" fill="#f36900" stroke="none" /><path d="M 101.08105385017728 120.97215588758144 l 1.3269463803329282 25.742405281883464 a46.77658271363798,46.77658271363798 0 0,0 -0.8022723857417592,0.03445302820936455 l -0.8848482339903394 -25.761390878518657" fill="#c1e000" stroke="none" /><path d="M 100.72087961077811 120.9876233191556 l 2.1000812547282957 61.141574341771474 a82.17763034203621,82.17763034203621 0 0,0 -1.4102725645945673,0.03632361868277571 l -1.0501953760629847 -61.1686156778043" fill="#00b19c" stroke="none" /><line stroke="#006cb8" stroke-width="0.3" x1="101.45913802915013" x2="101.54496967792366" y1="184.9874750549273" y2="189.98673829345242" /><path d="M 101.47630435890484 185.9873277026323 a86.0,86.0 0 0,1 -42.54439059252881,-10.42667462771756" fill="none" id="id31" stroke="none" /><text fill="#006cb8" style="font-size:6.75px; font-family:Arial;" text-anchor="middle"><textPath startOffset="22.145653131862474" xlink:href="#id31">七月</textPath></text><path d="M 100.0 121.0 l 2.2471303864555586e-15 18.34921209952207 a39.34921209952207,39.34921209952207 0 0,0 -0.675481550488312,-0.005798196708247497 l 0.3149886256394577 -18.346508301008257" fill="#eab500" stroke="none" /><path d="M 99.63950707515114 120.99690560180557 l -0.3292713740126166 19.17840678958831 a40.18123318831902,40.18123318831902 0 0,0 -0.6895610221566156,-0.017760645889411043 l 0.6584457102399761 -19.16992842634885" fill="#e9bd00" stroke="none" /><path d="M 98.91894614982273 120.97215588758144 l -1.8793306690960996 36.4585129132404 a57.50691780483148,57.50691780483148 0 0,0 -0.9854375792154185,-0.05928147770822005 l 2.5049126004439644 -36.420879457707485" fill="#46d200" stroke="none" /><path d="M 98.55909050195518 120.95050786540614 l -2.4949526350798155 36.27606374722468 a57.36175999101254,57.36175999101254 0 0,0 -0.9817902407157753,-0.07599677390684573 l 3.1173118705708265 -36.22788920632278" fill="#48d200" stroke="none" /><path d="M 98.19965949673042 120.92268563240118 l -3.141970222743402 36.514456636085576 a57.64938635651599,57.64938635651599 0 0,0 -0.9852566635209301,-0.09330483040292345 l 3.768326449649347 -36.45514005017747" fill="#45d200" stroke="none" /><path d="M 97.48249496171623 120.84855314841334 l -4.932889065184006 40.85139782712258 a62.14814818383991,62.14814818383991 0 0,0 -1.058063871625721,-0.1369875513586259 l 5.633430758700521 -40.76069867956356" fill="#15cc00" stroke="none" /><path d="M 96.76829788921471 120.74984581791261 l -7.048965328787852 45.25941399735567 a66.80504849457631,66.80504849457631 0 0,0 -1.1316218409119936,-0.1862079432894513 l 7.824864672752908 -45.131740055570546" fill="#00c619" stroke="none" /><path d="M 96.41257539226777 120.69131181640829 l -3.904112911514543 22.517885795982895 a43.85382415148027,43.85382415148027 0 0,0 -0.7406394394042778,-0.13496917785728266 l 4.290087084469878 -22.447548444194247" fill="#e4e300" stroke="none" /><path d="M 95.70440661134978 120.55596938700252 l -9.111062795115384 43.599733716486554 a65.54153393637303,65.54153393637303 0 0,0 -1.099342453562995,-0.23959657104641643 l 9.858167665297515 -43.43690568730642" fill="#00c70c" stroke="none" /><path d="M 95.35216902796893 120.47920084513623 l -5.118134075278299 22.5514430947897 a44.124940693330714,44.124940693330714 0 0,0 -0.7372391860678155,-0.17398644051377563 l 5.504505415086002 -22.460260510629695" fill="#e2e400" stroke="none" /><path d="M 95.00130118170881 120.39639698878247 l -5.463686572704386 22.293705704248588 a43.95345692902043,43.95345692902043 0 0,0 -0.7312907235926687,-0.1858912422471287 l 5.845582589522434 -22.196629230166195" fill="#e4e400" stroke="none" /><path d="M 93.61358852112213 120.00534299687104 l -10.5947626146479 33.187942990747985 a55.83803316517566,55.83803316517566 0 0,0 -0.9106312730258982,-0.2993425868789923 l 11.162916625321541 -33.00117948246697" fill="#58d400" stroke="none" /><path d="M 92.93061703081489 119.77432235084164 l -7.68719445913163 21.50245104432287 a43.83524380351578,43.83524380351578 0 0,0 -0.7063962877617288,-0.2593985014742235 l 8.055179898547477 -21.36732169383993" fill="#e4e300" stroke="none" /><path d="M 92.59220618246901 119.65005319985036 l -8.031327884426016 21.304051392593003 a43.76762687074353,43.76762687074353 0 0,0 -0.7007566742275027,-0.2710677355591145 l 8.395856821147046 -21.163043768895847" fill="#e4e200" stroke="none" /><path d="M 91.92203290615298 119.3841803445677 l -13.228446259522764 31.74345537608442 a55.389515112233624,55.389515112233624 0 0,0 -0.8745343054540005,-0.37328669197402886 l 13.771415640147195 -31.51169403445099" fill="#5dd500" stroke="none" /><path d="M 91.26138138417905 119.09545874513695 l -22.79362039294706 49.80817415212746 a75.77593762763381,75.77593762763381 0 0,0 -1.1781761358282132,-0.5514459211681777 l 23.645285242646764 -49.409551999388746" fill="#00ba69" stroke="none" /><path d="M 90.93487009805054 118.94263497670748 l -11.44749023968621 23.920851808550996 a47.51890239120708,47.51890239120708 0 0,0 -0.7327861669385025,-0.35844243463272873 l 11.856436655886784 -23.720815623821046" fill="#b8df00" stroke="none" /><path d="M 90.6110303473126 118.78422872680471 l -10.209685840585287 20.42621087857922 a43.835668937424096,43.835668937424096 0 0,0 -0.670211429227732,-0.3422147312091777 l 10.558824491526602 -20.247938195697202" fill="#e4e300" stroke="none" /><path d="M 89.97174638481275 118.45085714620012 l -25.96810000336257 47.77837915812771 a75.37936863151734,75.37936863151734 0 0,0 -1.1316087644861623,-0.6276843061468298 l 26.78445295600483 -47.325561936547736" fill="#00ba66" stroke="none" /><line stroke="#006cb8" stroke-width="0.3" x1="58.13341422392154" x2="55.67067388415222" y1="173.97424548756322" y2="178.32567169271397" /><path d="M 57.64086615596768 174.84453072859336 a86.0,86.0 0 0,1 -31.369924170532247,-30.572349798747897" fill="none" id="id32" stroke="none" /><text fill="#006cb8" style="font-size:6.75px; font-family:Arial;" text-anchor="middle"><textPath startOffset="22.145653131862474" xlink:href="#id32">八月</textPath></text><path d="M 89.03521579738668 117.91015095944536 l -11.961466715108026 19.538156940006736 a43.9088686448932,43.9088686448932 0 0,0 -0.6394717664699516,-0.39907767740460437 l 12.29510261036769 -19.329943465760582" fill="#e4e300" stroke="none" /><path d="M 88.72937992617639 117.7192867562869 l -19.534473311566018 30.711436635557103 a57.39763711808946,57.39763711808946 0 0,0 -0.8268385667962108,-0.5359467694171477 l 20.05879751061924 -30.37157602443606" fill="#47d200" stroke="none" /><path d="M 88.1277618465304 117.32195027204791 l -12.84954513415175 18.747870364036153 a43.72869229281148,43.72869229281148 0 0,0 -0.6155436237289049,-0.42969725488971183 l 13.16948384905442 -18.524528293341312" fill="#e4e200" stroke="none" /><path d="M 87.2517909369889 116.68781488649013 l -15.815602707892001 20.703131632298028 a47.05288752515045,47.05288752515045 0 0,0 -0.6376563745645211,-0.4958454536914712 l 16.168669027091752 -20.428585126985766" fill="#bee000" stroke="none" /><path d="M 86.96720088162412 116.46651593811092 l -22.840776787280188 28.858575321419742 a57.80378314560086,57.80378314560086 0 0,0 -0.7727794089847114,-0.6224963896939681 l 23.33280696662016 -28.462230637932365" fill="#43d200" stroke="none" /><path d="M 86.68645165197938 116.24036423190432 l -23.06692868801665 28.137902369239463 a57.384402548879336,57.384402548879336 0 0,0 -0.7564512116340716,-0.6310585048647763 l 23.546554233812614 -27.737781680462817" fill="#47d200" stroke="none" /><path d="M 86.40962598614128 116.0094264158162 l -17.716258857004096 20.869708386651578 a48.375364034698265,48.375364034698265 0 0,0 -0.6284662848860614,-0.5428542085205567 l 18.07190462165302 -20.5625100456663" fill="#aede00" stroke="none" /><path d="M 85.60350026404147 115.28858382429668 l -22.530664921959566 23.92678537104042 a53.865208351955616,53.865208351955616 0 0,0 -0.6677426566005481,-0.6396823600733408 l 22.938080064425428 -23.536490880661496" fill="#6ed700" stroke="none" /><path d="M 85.08716467003676 114.78537596483092 l -26.593746461708864 26.36645084920459 a58.44885954542774,58.44885954542774 0 0,0 -0.7003097390148627,-0.7185794861499747 l 27.042443001874535 -25.906048670986877" fill="#3cd100" stroke="none" /><path d="M 84.83555147118756 114.52719865689866 l -16.409563825834944 15.71999094579872 a43.7242579700668,43.7242579700668 0 0,0 -0.5145807276911026,-0.5464669005635344 l 16.6770003872623 -15.435982585290697" fill="#e4e200" stroke="none" /><path d="M 84.3458050057657 113.99807769240083 l -17.983974186107602 16.081380611905335 a45.12538351843447,45.12538351843447 0 0,0 -0.5113972386672706,-0.5818761817070651 l 18.257382488733466 -15.77029215238697" fill="#d6e300" stroke="none" /><path d="M 84.1078160697243 113.72728997021213 l -5.072016355065362 4.381086925818929 a27.702184163213666,27.702184163213666 0 0,0 -0.3077652460954728,-0.36254668603576246 l 5.146476164667947 -4.293373457333612" fill="#fa3100" stroke="none" /><path d="M 83.4222238831116 112.89097897827486 l -21.711480602149287 16.882978636947698 a48.50315177562632,48.50315177562632 0 0,0 -0.5054675646752539,-0.661673267886709 l 21.99810014417884 -16.50778445582012" fill="#adde00" stroke="none" /><path d="M 83.20337586046588 112.60449989151573 l -37.11680234372237 27.8531404422934 a67.40532780534014,67.40532780534014 0 0,0 -0.6865649279453397,-0.9314571833701267 l 37.58946929125154 -27.211876949654396" fill="#00c51e" stroke="none" /><path d="M 82.98947788004972 112.3143062007846 l -18.442544165536404 13.35097972739785 a43.767874186650566,43.767874186650566 0 0,0 -0.43535467081102774,-0.6123808654548182 l 18.669013934877395 -13.032421635233527" fill="#e4e200" stroke="none" /><path d="M 82.78059297857968 112.02048342749411 l -9.370138735161987 6.541084558790158 a32.42739196498598,32.42739196498598 0 0,0 -0.31471596622744796,-0.45918000012644544 l 9.48104443820476 -6.379269823593662" fill="#f36900" stroke="none" /><path d="M 81.99639281039703 110.81064883170644 l -23.860819750770936 14.327736683301769 a48.832045516720676,48.832045516720676 0 0,0 -0.4253649958641862,-0.722362756647859 l 24.10325845676489 -13.91602275836035" fill="#a9de00" stroke="none" /><line stroke="#006cb8" stroke-width="0.3" x1="26.387840678322732" x2="22.057713659400548" y1="142.50000000000003" y2="145.00000000000006" /><path d="M 25.521815274538298 143.00000000000003 a86.0,86.0 0 0,1 -11.493303480769221,-40.785679425670985" fill="none" id="id33" stroke="none" /><text fill="#006cb8" style="font-size:6.75px; font-family:Arial;" text-anchor="middle"><textPath startOffset="21.40746469413373" xlink:href="#id33">九月</textPath></text><path d="M 81.4637452351635 109.86951160357371 l -26.79666300113391 14.267713720057865 a51.35833992157454,51.35833992157454 0 0,0 -0.40766765979848635,-0.7817564906593949 l 27.037638729907346 -13.805610986293967" fill="#8bda00" stroke="none" /><path d="M 81.29705330413844 109.54985784667822 l -20.72448452269191 10.582069465085095 a44.269818497254825,44.269818497254825 0 0,0 -0.3397815803565802,-0.6797907713703489 l 20.903086016260225 -10.224746837550994" fill="#e0e400" stroke="none" /><path d="M 80.83023694016515 108.57439118712176 l -21.288162490175065 9.521924307360003 a44.320654037208946,44.320654037208946 0 0,0 -0.30468575094385003,-0.6971806248015356 l 21.448482123135882 -9.155081612782617" fill="#e0e400" stroke="none" /><path d="M 80.68587082218212 108.24405325689762 l -57.942387533453626 24.73215977069285 a84.0,84.0 0 0,0 -0.5546966218540579,-1.3310699622348747 l 58.35840999984417 -23.733857299016694" fill="#00afaa" stroke="none" /><path d="M 80.16572619554312 106.89939002012753 l -21.70721434597066 7.550895964222577 a43.98301948231405,43.98301948231405 0 0,0 -0.2419371406416125,-0.715244166894313 l 21.833636908184637 -7.177150122854103" fill="#e4e400" stroke="none" /><path d="M 79.83685265289637 105.86919833188381 l -43.743795804796356 12.73318142986524 a66.55934131149817,66.55934131149817 0 0,0 -0.3099177504743487,-1.0997887631107552 l 43.95593204734528 -11.98038474285149" fill="#00c616" stroke="none" /><path d="M 79.64726062577567 105.17358676015961 l -55.98970064475991 14.23236295787673 a78.77029282991882,78.77029282991882 0 0,0 -0.3218796983224382,-1.313379010871926 l 56.225767869598634 -13.269128122396705" fill="#00b682" stroke="none" /><path d="M 79.34024301695615 103.76489593502545 l -44.890453597283845 8.180536025112646 a66.62974900027459,66.62974900027459 0 0,0 -0.195400250125168,-1.1270167171261767 l 45.02426866490124 -7.408726275065876" fill="#00c617" stroke="none" /><path d="M 79.2786578344484 103.40968896794605 l -22.56261832255822 3.712670258893732 a43.86603739218306,43.86603739218306 0 0,0 -0.11588677620596564,-0.7440762348063107 l 22.62302659090245 -3.324805842155971" fill="#e4e300" stroke="none" /><path d="M 79.13060592940153 102.33845913500099 l -22.594871864988587 2.531802520864662 a43.7362762694314,43.7362762694314 0 0,0 -0.07719995824136693,-0.7468395658286878 l 22.635004215711618 -2.1435584327530424" fill="#e4e200" stroke="none" /><path d="M 79.03789590574601 101.26102812881392 l -45.40986495914193 2.731744713299849 a66.49195824303618,66.49195824303618 0 0,0 -0.05876119328146154,-1.1399514514814104 l 45.45006774187996 -1.9518214684417075" fill="#00c616" stroke="none" /><line stroke="#006cb8" stroke-width="0.3" x1="15.003131293944662" x2="10.003315487706104" y1="100.72959589197737" y2="100.7725132973878" /><path d="M 14.003168132696942 100.73817937305945 a86.0,86.0 0 0,1 10.791469493833604,-42.45332614584628" fill="none" id="id34" stroke="none" /><text fill="#006cb8" style="font-size:6.75px; font-family:Arial;" text-anchor="middle"><textPath startOffset="22.145653131862435" xlink:href="#id34">十月</textPath></text><path d="M 79.00077361379809 100.18025310272382 l -53.30245588821302 0.45753747685501234 a74.30441955652103,74.30441955652103 0 0,0 0.0,-1.2755811591576403 l 53.30245588821302 0.45753747685499274" fill="#00bc5d" stroke="none" /><path d="M 79.00696218219943 99.45929381324524 l -22.797846221428383 -0.5871916491360596 a43.80540695468317,43.80540695468317 0 0,0 0.02581455344259751,-0.7515625573328983 l 22.784406980988933 0.9784604710330964" fill="#e4e200" stroke="none" /><path d="M 79.13060592940154 97.66154086499901 l -45.24902994677141 -5.070248185980356 a66.53220978374817,66.53220978374817 0 0,0 0.1369230144470324,-1.1339189795171374 l 45.15532484606471 5.8462608424209295" fill="#00c616" stroke="none" /><path d="M 79.34024301695615 96.23510406497455 l -45.01602796882639 -8.203419858710088 a66.75739144082013,66.75739144082013 0 0,0 0.2151295331605498,-1.1256486225838749 l 44.86857214338368 8.974971046327278" fill="#00c618" stroke="none" /><path d="M 79.73907114497095 94.47779374421319 l -40.748470801336715 -11.106176917305264 a63.23487940513001,63.23487940513001 0 0,0 0.29443818389121756,-1.0448572422156504 l 40.55181412537091 11.804042083423928" fill="#0acb00" stroke="none" /><path d="M 80.16572619554312 93.10060997987247 l -36.3091012419597 -12.63019020602031 a59.44310780411921,59.44310780411921 0 0,0 0.34352406929368845,-0.9608979611228055 l 36.08693700262207 13.251623123524038" fill="#31d000" stroke="none" /><path d="M 80.9802524753101 91.09779779509293 l -43.25179600190079 -20.244024440097803 a68.75498280725603,68.75498280725603 0 0,0 0.5095095925437695,-1.0646790871261684 l 42.89790715139712 20.98351602928906" fill="#00c32b" stroke="none" /><line stroke="#006cb8" stroke-width="0.3" x1="26.387840678322718" x2="22.05771365940052" y1="57.49999999999999" y2="54.99999999999999" /><path d="M 25.521815274538284 56.99999999999999 a86.0,86.0 0 0,1 29.574782752854787,-30.34633250058573" fill="none" id="id35" stroke="none" /><text fill="#006cb8" style="font-size:6.75px; font-family:Arial;" text-anchor="middle"><textPath startOffset="21.40746469413373" xlink:href="#id35">十一月</textPath></text><path d="M 81.99639281039701 89.18935116829357 l -4.732230383461 -2.8415683772456526 a26.51982927677242,26.51982927677242 0 0,0 0.23770864033630168,-0.38827919949148676 l 4.682753778669306 2.9223846928616823" fill="#fb2300" stroke="none" /><path d="M 82.18462484594161 88.88188828441811 l -19.280335345304323 -12.032355222906636 a43.72683223059474,43.72683223059474 0 0,0 0.4028746875172812,-0.6333859244841344 l 19.07094296616115 12.361554822069444" fill="#e4e200" stroke="none" /><path d="M 84.10781606972428 86.27271002978789 l -7.149363564403653 -6.175449968463556 a30.447199674454808,30.447199674454808 0 0,0 0.34505222171256134,-0.39260608794619717 l 7.042300278732498 6.297268334221053" fill="#f65200" stroke="none" /><path d="M 84.83555147118756 85.47280134310135 l -8.221195610106571 -7.875719423513654 a32.38485896695896,32.38485896695896 0 0,0 0.3880218075693649,-0.3981445574216994 l 8.084787001386404 8.015686673003083" fill="#f36800" stroke="none" /><path d="M 85.08716467003674 85.21462403516908 l -10.792014829378292 -10.69977594064816 a36.19713095480835,36.19713095480835 0 0,0 0.441274190121156,-0.43750263850956306 l 10.60674871912716 10.883458589386397" fill="#ee9300" stroke="none" /><path d="M 86.13680546590413 84.22622945171909 l -7.50927743190671 -8.544179258464514 a32.375071285496134,32.375071285496134 0 0,0 0.42059922813447226,-0.3633035957285917 l 7.361498724009389 8.671826986657816" fill="#f36800" stroke="none" /><path d="M 87.25179093698888 83.31218511350988 l -10.046041539053208 -13.150590856886382 a37.54874588872541,37.54874588872541 0 0,0 0.5155746974839833,-0.38689686478186913 l 9.818813852658472 13.321106748932252" fill="#eda200" stroke="none" /><path d="M 87.83215693770416 82.88440491214696 l -6.600369082454718 -9.284245701338284 a32.391316441370705,32.391316441370705 0 0,0 0.45595391159110005,-0.31829124145588 l 6.4400200796898535 9.39618175859929" fill="#f36800" stroke="none" /><path d="M 88.72937992617638 82.28071324371311 l -6.1502193064734785 -9.669166274050813 a32.45940547990867,32.45940547990867 0 0,0 0.47272621685315713,-0.29501612199620225 l 5.983328960830623 9.773318192888551" fill="#f36900" stroke="none" /><line stroke="#006cb8" stroke-width="0.3" x1="56.869717070023135" x2="54.33264160355391" y1="26.7553504044142" y2="22.446841604673864" /><path d="M 56.362301976729285 25.89364864446614 a86.0,86.0 0 0,1 42.16139366436587,-11.88097634709845" fill="none" id="id36" stroke="none" /><text fill="#006cb8" style="font-size:6.75px; font-family:Arial;" text-anchor="middle"><textPath startOffset="22.145653131862474" xlink:href="#id36">十二月</textPath></text><path d="M 89.34428304082924 81.90426304109057 l -14.976633708657426 -25.43359824216762 a50.51554635759409,50.51554635759409 0 0,0 0.7510159077613345,-0.4335992365116953 l 14.537825333035693 25.68694437595549" fill="#95db00" stroke="none" /><path d="M 91.26138138417902 80.90454125486306 l -7.387810246698834 -16.143698676508034 a38.75383753443507,38.75383753443507 0 0,0 0.6073032628806397,-0.2716390249008609 l 7.109593580962575 16.26814145231874" fill="#ebaf00" stroke="none" /><path d="M 93.95794788825049 79.88797359093562 l -4.061841655070808 -13.520549827328052 a35.11750067342407,35.11750067342407 0 0,0 0.5788367261089195,-0.168490934913474 l 3.829144916580264 13.588284456544047" fill="#f08700" stroke="none" /><path d="M 95.70440661134978 79.44403061299748 l -2.3271985627874017 -11.136487578300795 a32.377047452317655,32.377047452317655 0 0,0 0.5450190505964108,-0.10901907426801877 l 2.1356830266600144 11.174796049231679" fill="#f36800" stroke="none" /><path d="M 96.76829788921471 79.25015418208739 l -1.8085176441735318 -11.611980618614773 a32.75197132213877,32.75197132213877 0 0,0 0.5562764720220942,-0.08175348495486767 l 1.6089160665437525 11.641315176868526" fill="#f36d00" stroke="none" /><path d="M 97.84075906011542 79.11130261209362 l -1.1731377692901455 -11.349043733088585 a32.40951558486566,32.40951558486566 0 0,0 0.5538947282804013,-0.05245440665033206 l 0.9781434776247284 11.367509895244101" fill="#f36900" stroke="none" /><path d="M 99.63950707515114 79.00309439819443 l -0.44639647416428796 -26.000356686434706 a47.00418846328368,47.00418846328368 0 0,0 0.8068893990131337,-0.006926175043412538 l 6.3691892331969785e-15 26.004188463283683" fill="#bfe000" stroke="none" /></svg>