<?xml version="1.0" encoding="utf-8" ?>
<svg baseProfile="full" height="200mm" version="1.1" viewBox="0,0,200,200" width="200mm" xmlns="http://www.w3.org/2000/svg" xmlns:ev="http://www.w3.org/2001/xml-events" xmlns:xlink="http://www.w3.org/1999/xlink"><defs /><rect fill="#f5f5f5" height="200" rx="1" ry="1" width="200" x="0" y="0" /><text alignment-baseline="middle" fill="#006cb8" style="dominant-baseline: central; font-size:9.0px; font-family:Arial;" text-anchor="middle" x="100.0" y="100.0">2025</text><line stroke="#006cb8" stroke-width="0.3" x1="100.0" x2="100.0" y1="15.0" y2="10.0" /><path d="M 100.0 14.0 a86.0,86.0 0 0,1 42.46469731375804,11.215312516191453" fill="none" id="id133" stroke="none" /><text fill="#006cb8" style="font-size:6.75px; font-family:Arial;" text-anchor="middle"><textPath startOffset="22.20632615414155" xlink:href="#id133">一月</textPath></text><path d="M 100.72285384407766 79.0124445844662 l 0.3035234778284886 -8.812591733490953 a29.8178171654206,29.8178171654206 0 0,0 0.512808477496686,0.022082611762294323 l -0.45517278771450614 8.806061395204464" fill="#f55c00" stroke="none" /><path d="M 101.44485096284872 79.0497635885617 l 0.913204763348254 -13.24140425284866 a34.27285687134313,34.27285687134313 0 0,0 0.5882035169053506,0.04565591357276696 l -1.1409984696159456 13.22372307708743" fill="#ef8d00" stroke="none" /><path d="M 101.80526077348638 79.07773832637324 l 0.7551619460902276 -8.752029664696089 a29.784548526620085,29.784548526620085 0 0,0 0.5104147912234218,0.048470034655166305 l -0.9057018644038936 8.737734085525744" fill="#f55b00" stroke="none" /><path d="M 102.88285421437855 79.19881850522331 l 1.2454579572567357 -8.98657895491111 a30.07247302757883,30.07247302757883 0 0,0 0.5121356757087984,0.07547548587970905 l -1.3999626133941898 8.963808984870433" fill="#f55f00" stroke="none" /><path d="M 103.2404852339499 79.25152402106235 l 0.25040703103191825 -1.6033290983368726 a22.62276550331955,22.62276550331955 0 0,0 0.38423236816205014,0.06340163297670945 l -0.27796860533284357 1.5987812024205386" fill="#fe0800" stroke="none" /><path d="M 103.95276090670814 79.375362276772 l 9.393531096098426 -49.01338086756498 a70.90540983222513,70.90540983222513 0 0,0 1.1967266188114547,0.24005210151406775 l -10.235824124377007 48.8444248099737" fill="#00c042" stroke="none" /><path d="M 105.71112130821622 79.79150937346287 l 0.6730511224816634 -2.3815546135018386 a23.474833366222,23.474833366222 0 0,0 0.3879046102567393,0.11323999277872693 l -0.7139459504618298 2.369616291804408" fill="#fd1200" stroke="none" /><path d="M 106.40334571778207 80.00007090966166 l 0.7493524645731215 -2.3404946126075727 a23.4575280563621,23.4575280563621 0 0,0 0.383493920451407,0.12643191613257637 l -0.789529207266946 2.3272489722157603" fill="#fd1200" stroke="none" /><path d="M 108.76106565485865 80.91482961587045 l 6.476094150298613 -14.10757151597991 a36.52299486317056,36.52299486317056 0 0,0 0.5691009384677269,0.26720052142106154 l -6.717973300065938 13.994006011918843" fill="#eca400" stroke="none" /><line stroke="#006cb8" stroke-width="0.3" x1="143.23703022742887" x2="145.7803849466894" y1="26.81831364943548" y2="22.513508569990506" /><path d="M 143.74570117128098 25.957352633546492 a86.0,86.0 0 0,1 28.547481713284135,27.462654790039103" fill="none" id="id134" stroke="none" /><text fill="#006cb8" style="font-size:6.75px; font-family:Arial;" text-anchor="middle"><textPath startOffset="19.985693538727396" xlink:href="#id134">二月</textPath></text><path d="M 110.99172775467656 82.1063720568725 l 1.3179061316554472 -2.1454426920076957 a23.517896129022056,23.517896129022056 0 0,0 0.3431158547824213,0.2148591167872432 l -1.3546411388101316 2.122439233897508" fill="#fd1200" stroke="none" /><path d="M 113.34407831869373 83.78471172551755 l 1.354583295440246 -1.646045392029159 a23.131750768008818,23.131750768008818 0 0,0 0.3052757324901806,0.25565964670045127 l -1.3827165648895439 1.6224845879348884" fill="#fe0e00" stroke="none" /><path d="M 113.6212207817346 84.01681056812373 l 5.73665514211688 -6.7314117663192885 a29.8442702687852,29.8442702687852 0 0,0 0.38812644215558284,0.3365794259758501 l -5.851675382919227 6.631667346923767" fill="#f55c00" stroke="none" /><path d="M 114.16331599549186 84.49514656593476 l 4.728640387773549 -5.176533248157907 a28.0111722547779,28.0111722547779 0 0,0 0.35319702755855775,0.328258144313053 l -4.817045299126954 5.094370517770213" fill="#f74700" stroke="none" /><path d="M 114.42810811169701 84.74124197986012 l 3.387192403908242 -3.582198640235497 a25.93003240143498,25.93003240143498 0 0,0 0.3216765682974637,0.30945260383814904 l -3.448352215818124 3.523362949635046" fill="#fa2f00" stroke="none" /><path d="M 114.68862486808459 84.99185889309783 l 2.0690743502463147 -2.1140821614037155 a23.958109540232176,23.958109540232176 0 0,0 0.29224809332748625,0.2909930871385998 l -2.1051582437411236 2.078153223614997" fill="#fc1800" stroke="none" /><path d="M 115.4437574822437 85.77008943001954 l 6.557133307162453 -6.041756396630888 a29.916210942105927,29.916210942105927 0 0,0 0.3456837539892449,0.3817126351139763 l -6.660160701767734 5.927990974247362" fill="#f55d00" stroke="none" /><path d="M 115.9244219780498 86.31012108654704 l 6.628940551784596 -5.698755885990585 a29.74177736431251,29.74177736431251 0 0,0 0.33040195214872425,0.391091697203739 l -6.726053117420437 5.58380523915774" fill="#f55b00" stroke="none" /><path d="M 116.38621287248628 86.86637796730983 l 40.408217884841335 -32.38736521024904 a72.78576539832989,72.78576539832989 0 0,0 0.7751542581991203,0.9843671897654974 l -40.95972622363442 31.6870056265305" fill="#00bd52" stroke="none" /><path d="M 117.2510076193507 88.02491185347247 l 2.020663408254294 -1.402678786204065 a23.459794378952186,23.459794378952186 0 0,0 0.2274209607617541,0.33371219764525734 l -2.0445088346847813 1.3676885652884012" fill="#fd1200" stroke="none" /><line stroke="#006cb8" stroke-width="0.3" x1="172.23445277983987" x2="176.4835382374775" y1="55.19839476539836" y2="52.563006222186495" /><path d="M 173.08426987136738 54.67131705675599 a86.0,86.0 0 0,1 12.851231095245387,41.99856678651699" fill="none" id="id135" stroke="none" /><text fill="#006cb8" style="font-size:6.75px; font-family:Arial;" text-anchor="middle"><textPath startOffset="22.20632615414155" xlink:href="#id135">三月</textPath></text><path d="M 118.03404312379186 89.2402003453031 l 1.036932975108073 -0.6186738598175063 a22.20747146537215,22.20747146537215 0 0,0 0.19303614621333096,0.32996134746473904 l -1.047428795791731 0.6007330999988719" fill="#ff0300" stroke="none" /><path d="M 118.56541770881063 90.18545643968196 l 2.6294052714648313 -1.3900259600555323 a23.97421321549672,23.97421321549672 0 0,0 0.18972800399160142,0.36649411450099895 l -2.652942708616549 1.3445591232941885" fill="#fc1800" stroke="none" /><path d="M 119.04729006885535 91.15688171328212 l 4.456083291010601 -2.0688334926083227 a25.912916681215123,25.912916681215123 0 0,0 0.18434903394739882,0.40618865991263786 l -4.491034641921346 1.991822823853622" fill="#fa2f00" stroke="none" /><path d="M 119.47837535516314 92.15188598940014 l 10.539885823893647 -4.246669657831415 a32.363247615160915,32.363247615160915 0 0,0 0.20374428959523566,0.5185069935678582 l -10.611423663370584 4.064613659367772" fill="#f27800" stroke="none" /><path d="M 119.7369772167798 92.82701384747503 l 8.211353359710099 -2.984242384016885 a29.736820165517035,29.736820165517035 0 0,0 0.17069914559360988,0.48258947118729134 l -8.261505586113518 2.8424552864029793" fill="#f55b00" stroke="none" /><path d="M 120.08093135843002 93.85539295169968 l 1.8026813761615366 -0.5516063220420222 a22.885186908101257,22.885186908101257 0 0,0 0.11202201226901354,0.377682536245759 l -1.8119092855422523 0.5204943990497333" fill="#fe0b00" stroke="none" /><path d="M 120.18372546131832 94.20196356495316 l 10.739108935072839 -3.084948068919211 a32.17342227373913,32.17342227373913 0 0,0 0.14832442439299,0.5336018718224886 l -10.790620130032192 2.8996348936777703" fill="#f27600" stroke="none" /><path d="M 120.37134235888165 94.90015583598534 l 8.61394916325153 -2.156450841354317 a29.87977479546973,29.87977479546973 0 0,0 0.12061070658330074,0.5000092446580529 l -8.64979267009565 2.007856365036858" fill="#f55c00" stroke="none" /><path d="M 120.53481517161879 95.60439243477599 l 53.45778323631783 -11.442977910920273 a75.66878754838956,75.66878754838956 0 0,0 0.26167241090583643,1.2760076066420785 l -53.646834943138664 10.521094648114783" fill="#00ba6a" stroke="none" /><path d="M 120.6074358757038 95.95851677861258 l 22.19990184990496 -4.353794008337512 a43.622801869186084,43.622801869186084 0 0,0 0.13816852796916904,0.7381018012680433 l -22.27155610178399 3.9710141296069055" fill="#dbe300" stroke="none" /><path d="M 120.67395015179393 96.31383870115 l 8.824638033481666 -1.5734312483363118 a29.963811818373493,29.963811818373493 0 0,0 0.08616470559380554,0.5085489699189605 l -8.850414600595693 1.4212964901015135" fill="#f55d00" stroke="none" /><path d="M 120.73433829027371 96.67025291283417 l 11.76969800344494 -1.8901069855784114 a32.92049896225943,32.92049896225943 0 0,0 0.08503538351143895,0.5602769309336695 l -11.80048928039568 1.6872309422526597" fill="#f17e00" stroke="none" /><path d="M 120.83666639777658 97.38593545837742 l 2.461193066513111 -0.30876904215089723 a23.480485765337708,23.480485765337708 0 0,0 0.04685994617759803,0.4014674019627936 l -2.466143365694298 0.2663579018632508" fill="#fd1200" stroke="none" /><path d="M 120.87857604477298 97.74499172005257 l 0.9912840611769184 -0.10706447417392205 a21.99704909185734,21.99704909185734 0 0,0 0.03741894381286979,0.37680365764937485 l -0.9929801306720168 0.08998528582011224" fill="#ff0000" stroke="none" /><path d="M 120.96714384426684 98.82574320788733 l 1.0511128389978972 -0.058867168539390974 a22.052759964967354,22.052759964967354 0 0,0 0.017963959594923626,0.37919079484088936 l -1.0519704068263174 0.040765267075501856" fill="#ff0100" stroke="none" /><line stroke="#006cb8" stroke-width="0.3" x1="184.98032266829074" x2="189.97916517819016" y1="98.17113171792111" y2="98.06355123074" /><path d="M 185.9800911702706 98.14961562048488 a86.0,86.0 0 0,1 -9.607161424134198,41.387399972396054" fill="none" id="id136" stroke="none" /><text fill="#006cb8" style="font-size:6.75px; font-family:Arial;" text-anchor="middle"><textPath startOffset="21.466115282336823" xlink:href="#id136">四月</textPath></text><path d="M 120.99513854157772 99.54816195383933 l 8.962962245636877 -0.19289262325468157 a29.965037634099374,29.965037634099374 0 0,0 0.0066593627312251154,0.5157749824086009 l -8.964954615485818 0.03858138278561795" fill="#f55d00" stroke="none" /><path d="M 120.99824983174949 100.27111621757518 l 8.835139488911706 0.11407377372761382 a29.83587588269434,29.83587588269434 0 0,0 -0.011050551064452116,0.5134756856584681 l -8.831866875162246 -0.2661392751761968" fill="#f55c00" stroke="none" /><path d="M 120.9904718944345 100.63252640178507 l 2.569219707729271 0.0774208081313394 a23.570385941471862,23.570385941471862 0 0,0 -0.015711196716885287,0.4054361761295634 l -2.5675063781611827 -0.12163423127490901" fill="#fd1300" stroke="none" /><path d="M 120.9764740272857 100.99374915477107 l 8.878488742937162 0.420613620404529 a29.88844633083486,29.88844633083486 0 0,0 -0.02876926507849563,0.5136945540756686 l -8.869933126971135 -0.5733798908156209" fill="#f55d00" stroke="none" /><path d="M 120.89721153311464 102.0752229133903 l 8.872646931591078 0.8811089549283802 a29.916289394312386,29.916289394312386 0 0,0 -0.05529911913884273,0.5120011639940417 l -8.856165510951183 -1.0337064408072134" fill="#f55d00" stroke="none" /><path d="M 120.81339534386255 102.79330883721812 l 8.768027880785766 1.1767330298463692 a29.846638544767607,29.846638544767607 0 0,0 -0.07272055167178663,0.5086073690194826 l -8.746473278097378 -1.3274858708462611" fill="#f55c00" stroke="none" /><path d="M 120.64145759157962 103.86396538481128 l 48.49298364705577 9.077615250140084 a70.33530745443059,70.33530745443059 0 0,0 -0.23301105018009557,1.1881183248530904 l -48.329542663900014 -9.91099730206112" fill="#00c13d" stroke="none" /><path d="M 120.41448212921028 104.9243191809786 l 8.552050637144733 2.06289959856166 a29.797336236272518,29.797336236272518 0 0,0 -0.12456518979478677,0.4975760132464738 l -8.515274133054886 -2.20980345120553" fill="#f55c00" stroke="none" /><path d="M 120.23288151984713 105.62410040840565 l 3.2495104894841256 0.9032610235521324 a24.372713877270915,24.372713877270915 0 0,0 -0.11583696685809439,0.40324367801540545 l -3.2334808857399318 -0.9590621770721199" fill="#fc1d00" stroke="none" /><path d="M 120.02730092923936 106.31721596034902 l 7.832744989472878 2.470684483928668 a29.213170879096474,29.213170879096474 0 0,0 -0.1553970266467425,0.47826287063666695 l -7.789055711809889 -2.60514625454313" fill="#f65500" stroke="none" /><path d="M 119.9155931802556 106.66101706037122 l 2.4319845987594633 0.8134074017417211 a23.564406498551165,23.564406498551165 0 0,0 -0.1319709651243112,0.3835693988906985 l -2.4176228026919215 -0.8551495037217199" fill="#fd1300" stroke="none" /><path d="M 119.79798401119884 107.00284435728193 l 10.682046978549126 3.7784004859100544 a32.33059741954747,32.33059741954747 0 0,0 -0.19009735278672066,0.5230662713047213 l -10.61542536475718 -3.9617145542209067" fill="#f27800" stroke="none" /><path d="M 119.54520255179757 107.68017299344265 l 10.47605099922812 4.116502949968148 a32.25580921460225,32.25580921460225 0 0,0 -0.20750835713833693,0.5150187247808445 l -10.40364002783239 -4.296221042591807" fill="#f27700" stroke="none" /><path d="M 119.26925614724726 108.34839909993367 l 2.5511515506058196 1.1052855982670908 a23.78029323775301,23.78029323775301 0 0,0 -0.1659625705570156,0.3742017837670082 l -2.531747895317531 -1.1490357185267865" fill="#fd1600" stroke="none" /><path d="M 118.97047184881838 109.00673069616215 l 11.06766977539216 5.254667458744295 a33.25172821928055,33.25172821928055 0 0,0 -0.24993700054028764,0.5149442500071971 l -10.975579518237158 -5.444400664716769" fill="#f08200" stroke="none" /><path d="M 118.64920377521936 109.65438752849418 l 6.59154935359803 3.4123372043041655 a28.42243680180552,28.42243680180552 0 0,0 -0.22866187656197784,0.432542096977158 l -6.531834968811158 -3.5252943163674577" fill="#f74c00" stroke="none" /><line stroke="#006cb8" stroke-width="0.3" x1="174.80103733775053" x2="179.2010983576182" y1="140.37084112569926" y2="142.7455964860345" /><path d="M 175.68104954172406 140.8457921977663 a86.0,86.0 0 0,1 -30.038265399797805,32.042727171017184" fill="none" id="id137" stroke="none" /><text fill="#006cb8" style="font-size:6.75px; font-family:Arial;" text-anchor="middle"><textPath startOffset="22.206326154141568" xlink:href="#id137">五月</textPath></text><path d="M 117.94076556474637 110.91462005526583 l 53.8222966942391 32.74386016579747 a84.0,84.0 0 0,0 -0.7621414413281484,1.228814674538906 l -53.25069061324299 -33.665471171701654" fill="#00afaa" stroke="none" /><path d="M 116.71984013943494 112.70617746262583 l 1.9566583096647872 1.4869548697229646 a23.457548885652756,23.457548885652756 0 0,0 -0.24707856658477548,0.31938235383677477 l -1.9307729258619433 -1.520415217672992" fill="#fd1200" stroke="none" /><path d="M 116.27256486870786 113.27417163493432 l 6.846589239991031 5.585032317818755 a29.835630719549165,29.835630719549165 0 0,0 -0.3280555466115705,0.3951640391215798 l -6.749437693485917 -5.702057614054106" fill="#f55c00" stroke="none" /><path d="M 115.80600337817218 113.82643327865902 l 2.5988045426580806 2.2733259479723817 a24.45279537717844,24.45279537717844 0 0,0 -0.27985776048880295,0.3144231606609195 l -2.5592879325209394 -2.3177232783741677" fill="#fc1e00" stroke="none" /><path d="M 115.56566222782051 114.09645910891815 l 5.9206842442280445 5.361845973787567 a28.98773398195459,28.98773398195459 0 0,0 -0.33812616966401193,0.3669691764407302 l -5.82751166656831 -5.462966405029632" fill="#f65200" stroke="none" /><path d="M 115.07121518719521 114.62390073753431 l 1.5742976170655898 1.5275723820109908 a23.19360214473389,23.19360214473389 0 0,0 -0.280487271589867,0.28413212526491605 l -1.547769720420187 -1.5544450012565714" fill="#fd0f00" stroke="none" /><path d="M 114.29624159901734 115.38237550388516 l 7.936620684583948 8.53959264444467 a32.65824130922067,32.65824130922067 0 0,0 -0.4150713961452796,0.3791578791308982 l -7.788449738971805 -8.674943290162151" fill="#f17b00" stroke="none" /><path d="M 113.75828350139079 115.86535959552629 l 9.04847111871266 10.434241166319806 a34.81116281502394,34.81116281502394 0 0,0 -0.4560834614719251,0.3886842203857627 l -8.867522180663688 -10.588449776928515" fill="#ee9200" stroke="none" /><path d="M 112.92097659922987 116.55440617244103 l 2.674967229981758 3.427178563710645 a25.347528331021437,25.347528331021437 0 0,0 -0.34626084199368146,0.2654980483209916 l -2.615577659494583 -3.4727159538590078" fill="#fb2800" stroke="none" /><path d="M 112.34349029814194 116.9893568818739 l 9.909795309778032 13.63966309994851 a37.85955078173187,37.85955078173187 0 0,0 -0.5305252940467184,0.3785157109821324 l -9.673542687882428 -13.808223072774862" fill="#ebb200" stroke="none" /><path d="M 111.7513745106137 117.40417183066458 l 4.878878643127132 7.2257796029946935 a29.71867809277394,29.71867809277394 0 0,0 -0.4264280775883398,0.2826132774131923 l -4.753775866798828 -7.3086909014992045" fill="#f55b00" stroke="none" /><line stroke="#006cb8" stroke-width="0.3" x1="143.8653032363475" x2="146.44561519142675" y1="172.8068346515853" y2="177.08958963109032" /><path d="M 144.38136562736335 173.6633856474863 a86.0,86.0 0 0,1 -40.68145358897372,12.25698825130547" fill="none" id="id138" stroke="none" /><text fill="#006cb8" style="font-size:6.75px; font-family:Arial;" text-anchor="middle"><textPath startOffset="21.466115282336833" xlink:href="#id138">六月</textPath></text><path d="M 110.21172684928248 118.3499491758327 l 0.6028279694875116 1.0832509295568853 a22.23969114588364,22.23969114588364 0 0,0 -0.336112887656679,0.1832755454652679 l -0.5840922699621838 -1.0934671267819236" fill="#ff0300" stroke="none" /><path d="M 109.89434966115114 118.52300852407294 l 1.193317871963984 2.233985847610101 a23.53272586571679,23.53272586571679 0 0,0 -0.35894029443519704,0.18778059748251694 l -1.1546866750022913 -2.2541958640373343" fill="#fd1300" stroke="none" /><path d="M 109.57404056367764 118.69057910512821 l 7.08863020335592 13.838525404359876 a36.548423184588316,36.548423184588316 0 0,0 -0.5624038158312625,0.2820009485694936 l -6.849372479841898 -13.958494193838671" fill="#eca500" stroke="none" /><path d="M 108.59647513512805 119.15986991738527 l 1.005541651622922 2.2411566297540335 a23.456399204575472,23.456399204575472 0 0,0 -0.36980613445758326,0.1621121417456982 l -0.966814842507585 -2.2581333247941866" fill="#fd1200" stroke="none" /><path d="M 107.93186726928326 119.44442032107085 l 7.324838316486512 17.956331110230327 a40.392861658427165,40.392861658427165 0 0,0 -0.6460529004486797,0.25707778210085236 l -7.014664339995966 -18.079755736737248" fill="#e7cc00" stroke="none" /><path d="M 107.2578585660854 119.70592522655815 l 0.8555008565586868 2.3227837463488474 a23.475319383003946,23.475319383003946 0 0,0 -0.38039009495266124,0.13639435441869513 l -0.8153912009762908 -2.337165641807503" fill="#fd1200" stroke="none" /><path d="M 106.57524785965236 119.94407469862006 l 1.1248947860031093 3.412036491856352 a24.592684414381033,24.592684414381033 0 0,0 -0.4031779195612427,0.1290848379044487 l -1.0659955213509262 -3.4308941764205074" fill="#fc1f00" stroke="none" /><path d="M 106.2309692047433 120.05430185196036 l 3.642826357113844 11.724394224934667 a33.27727998417258,33.27727998417258 0 0,0 -0.5484809230990871,0.16525280287213637 l -3.4404704595745113 -11.785362396912527" fill="#f08200" stroke="none" /><path d="M 105.53697534728816 120.25689768951611 l 0.6467439833176037 2.3660980733445562 a23.45289581365421,23.45289581365421 0 0,0 -0.3903338681246842,0.10309072226104972 l -0.6059196723814222 -2.37688014490919" fill="#fd1200" stroke="none" /><path d="M 105.18746579009965 120.34920634021253 l 4.154822497209405 16.298389950644296 a37.81963331843416,37.81963331843416 0 0,0 -0.6322122880310724,0.15538239874948986 l -3.873656924435122 -16.367493607707814" fill="#ebb200" stroke="none" /><path d="M 104.83641907484287 120.43548508189849 l 0.5658689492583485 2.390985208669963 a23.457034378231874,23.457034378231874 0 0,0 -0.3937205701583652,0.08960951992391959 l -0.5246282297071212 -2.400371462171567" fill="#fd1200" stroke="none" /><path d="M 103.41894727170886 120.7198165907248 l 2.747182499601809 16.648726350362235 a37.8738585028844,37.8738585028844 0 0,0 -0.6441516173331394,0.10060323498033823 l -2.460195018660152 -16.69354789268968" fill="#ebb200" stroke="none" /><path d="M 102.70371172650421 120.8252237178851 l 2.250393760861198 17.333561512440447 a38.47903392022796,38.47903392022796 0 0,0 -0.6575747648307408,0.07962314638870445 l -1.951691572979077 -17.369730187554502" fill="#eab900" stroke="none" /><path d="M 101.62511606390274 120.93702456842531 l 4.244275191832495 54.680706160242394 a75.84517752808149,75.84517752808149 0 0,0 -1.3025045443790106,0.08982833931331588 l -3.302407886674554 -54.745662844071994" fill="#00ba6c" stroke="none" /><line stroke="#006cb8" stroke-width="0.3" x1="102.19456741930631" x2="102.32365962044197" y1="184.97166512339345" y2="189.96999836594603" /><path d="M 102.22038585953345 185.97133177190398 a86.0,86.0 0 0,1 -42.740103519485714,-10.115201625700543" fill="none" id="id139" stroke="none" /><text fill="#006cb8" style="font-size:6.75px; font-family:Arial;" text-anchor="middle"><textPath startOffset="22.20632615414155" xlink:href="#id139">七月</textPath></text><path d="M 100.54218724476979 120.99299961872073 l 0.06347903876055278 2.4578509534337227 a23.45867055492537,23.45867055492537 0 0,0 -0.40375757905133164,0.006951052882320541 l -0.02116176981655317 -2.458579483595203" fill="#fd1200" stroke="none" /><line stroke="#006cb8" stroke-width="0.3" x1="58.666819895761336" x2="56.23545636021788" y1="174.27360380694188" y2="178.64263932499728" /><path d="M 58.180547188652646 175.14741091055294 a86.0,86.0 0 0,1 -31.652253787137756,-30.449443065178592" fill="none" id="id140" stroke="none" /><text fill="#006cb8" style="font-size:6.75px; font-family:Arial;" text-anchor="middle"><textPath startOffset="22.20632615414155" xlink:href="#id140">八月</textPath></text><line stroke="#006cb8" stroke-width="0.3" x1="26.63291911575756" x2="22.317208475507996" y1="142.92168965132927" y2="145.44649492493687" /><path d="M 25.769776987707644 143.4266507060508 a86.0,86.0 0 0,1 -11.730757126820373,-40.83630448921669" fill="none" id="id141" stroke="none" /><text fill="#006cb8" style="font-size:6.75px; font-family:Arial;" text-anchor="middle"><textPath startOffset="21.46611528233685" xlink:href="#id141">九月</textPath></text><line stroke="#006cb8" stroke-width="0.3" x1="15.007084014347285" x2="10.007500721073583" y1="101.09737516637583" y2="101.16192664675087" /><path d="M 14.007167355692545 101.11028546245083 a86.0,86.0 0 0,1 10.666146001902534,-42.60595125391555" fill="none" id="id142" stroke="none" /><text fill="#006cb8" style="font-size:6.75px; font-family:Arial;" text-anchor="middle"><textPath startOffset="22.20632615414155" xlink:href="#id142">十月</textPath></text><line stroke="#006cb8" stroke-width="0.3" x1="26.266209847984243" x2="21.928928074336255" y1="57.711370442889674" y2="55.22380399835377" /><path d="M 25.398753493254645 57.213857153982495 a86.0,86.0 0 0,1 29.58750427330803,-30.492523968695096" fill="none" id="id143" stroke="none" /><text fill="#006cb8" style="font-size:6.75px; font-family:Arial;" text-anchor="middle"><textPath startOffset="21.46611528233685" xlink:href="#id143">十一月</textPath></text><line stroke="#006cb8" stroke-width="0.3" x1="56.762969772571076" x2="54.21961505331055" y1="26.818313649435495" y2="22.513508569990535" /><path d="M 56.25429882871897 25.957352633546506 a86.0,86.0 0 0,1 42.265352541879196,-11.944610805530505" fill="none" id="id144" stroke="none" /><text fill="#006cb8" style="font-size:6.75px; font-family:Arial;" text-anchor="middle"><textPath startOffset="22.20632615414155" xlink:href="#id144">十二月</textPath></text></svg>