<?xml version="1.0" encoding="utf-8" ?>
<svg baseProfile="full" height="200mm" version="1.1" viewBox="0,0,200,200" width="200mm" xmlns="http://www.w3.org/2000/svg" xmlns:ev="http://www.w3.org/2001/xml-events" xmlns:xlink="http://www.w3.org/1999/xlink"><defs /><rect fill="#f5f5f5" height="200" rx="1" ry="1" width="200" x="0" y="0" /><text alignment-baseline="middle" fill="#006cb8" style="dominant-baseline: central; font-size:9.0px; font-family:Arial;" text-anchor="middle" x="100.0" y="100.0">2025</text><line stroke="#006cb8" stroke-width="0.3" x1="100.0" x2="100.0" y1="15.0" y2="10.0" /><path d="M 100.0 14.0 a86.0,86.0 0 0,1 42.46469731375804,11.215312516191453" fill="none" id="id37" stroke="none" /><text fill="#006cb8" style="font-size:6.75px; font-family:Arial;" text-anchor="middle"><textPath startOffset="22.20632615414155" xlink:href="#id37">一月</textPath></text><path d="M 101.44485096284872 79.0497635885617 l 4.334552888546152 -62.8507092343149 a84.0,84.0 0 0,0 1.4416392425506352,0.11189895124614191 l -5.415782320459128 62.76678502088029" fill="#00afaa" stroke="none" /><path d="M 103.2404852339499 79.25152402106235 l 1.1885642336030438 -7.610248055436264 a28.70250351526514,28.70250351526514 0 0,0 0.4874926054567306,0.08044045689818634 l -1.3193860451986494 7.588661335598453" fill="#f83d00" stroke="none" /><path d="M 105.71112130821622 79.79150937346287 l 3.1946566686704565 -11.30411802861798 a32.74686833311784,32.74686833311784 0 0,0 0.5411182690721342,0.15796726118209656 l -3.388765155466018 11.247452438517179" fill="#f36c00" stroke="none" /><path d="M 106.40334571778207 80.00007090966166 l 3.5568232013436476 -11.109225543796292 a32.66472817808253,32.66472817808253 0 0,0 0.5340172519198988,0.17605709193150218 l -3.747523275505964 11.046354727605554" fill="#f36b00" stroke="none" /><line stroke="#006cb8" stroke-width="0.3" x1="143.23703022742887" x2="145.7803849466894" y1="26.81831364943548" y2="22.513508569990506" /><path d="M 143.74570117128098 25.957352633546492 a86.0,86.0 0 0,1 28.547481713284135,27.462654790039103" fill="none" id="id38" stroke="none" /><text fill="#006cb8" style="font-size:6.75px; font-family:Arial;" text-anchor="middle"><textPath startOffset="19.985693538727396" xlink:href="#id38">二月</textPath></text><path d="M 110.99172775467656 82.1063720568725 l 6.255479667949687 -10.183405946937429 a32.95126698539751,32.95126698539751 0 0,0 0.48074462425685466,0.3010422396060458 l -6.429843444578804 10.074219366008437" fill="#f36f00" stroke="none" /><path d="M 113.34407831869373 83.78471172551755 l 6.4295688893464105 -7.813002182049687 a31.118416832665297,31.118416832665297 0 0,0 0.4106778422351296,0.3439308824094431 l -6.563104268540658 7.701170142246425" fill="#f55900" stroke="none" /><path d="M 114.16331599549186 84.49514656593476 l 7.942431204758301 -8.694731641878269 a32.776271556252325,32.776271556252325 0 0,0 0.41328087174737255,0.38409952931266206 l -8.09091996030052 8.556727526490967" fill="#f36d00" stroke="none" /><path d="M 114.42810811169701 84.74124197986012 l 1.8642951852790346 -1.9716257245967341 a23.713467253486982,23.713467253486982 0 0,0 0.2941788367419793,0.28299980786819723 l -1.8979572656334323 1.939242829966235" fill="#ff0000" stroke="none" /><path d="M 114.68862486808459 84.99185889309783 l 9.82092139838822 -10.034552279094713 a35.040752706148076,35.040752706148076 0 0,0 0.42743744659548333,0.42560189436062906 l -9.992194645151027 9.864014534083966" fill="#f08600" stroke="none" /><path d="M 116.38621287248628 86.86637796730983 l 9.124767826270547 -7.313541737731967 a32.69398480556947,32.69398480556947 0 0,0 0.34818458528040735,0.44215906460788207 l -9.24930649214492 7.155390279171046" fill="#f36c00" stroke="none" /><path d="M 117.2510076193507 88.02491185347247 l 9.591137458497913 -6.657855530835219 a32.67548534397071,32.67548534397071 0 0,0 0.31675854230630046,0.46480407488332354 l -9.704320466472947 6.491773432681489" fill="#f36b00" stroke="none" /><line stroke="#006cb8" stroke-width="0.3" x1="172.23445277983987" x2="176.4835382374775" y1="55.19839476539836" y2="52.563006222186495" /><path d="M 173.08426987136738 54.67131705675599 a86.0,86.0 0 0,1 12.851231095245387,41.99856678651699" fill="none" id="id39" stroke="none" /><text fill="#006cb8" style="font-size:6.75px; font-family:Arial;" text-anchor="middle"><textPath startOffset="22.20632615414155" xlink:href="#id39">三月</textPath></text><path d="M 118.03404312379186 89.2402003453031 l 4.921832433291196 -2.936553414710234 a26.731298322269,26.731298322269 0 0,0 0.23235904274179892,0.39717692433608126 l -4.971651150503322 2.8513970780202578" fill="#fb2500" stroke="none" /><path d="M 118.56541770881063 90.18545643968196 l 12.48054836332469 -6.597798524639469 a35.117189267733906,35.117189267733906 0 0,0 0.2779116947727703,0.5368369367851834 l -12.592269491257577 6.38198886559394" fill="#f08700" stroke="none" /><path d="M 119.04729006885535 91.15688171328212 l 21.15092854951123 -9.819778160625567 a44.319301482472156,44.319301482472156 0 0,0 0.3152952835849639,0.6947113634058654 l -21.31682615005954 9.45424478837764" fill="#e0e400" stroke="none" /><path d="M 119.47837535516314 92.15188598940014 l 10.815405513525842 -4.357680452980991 a32.66029053464354,32.66029053464354 0 0,0 0.20561433673416776,0.5232660595606483 l -10.88881340014171 4.170865388524558" fill="#f36b00" stroke="none" /><path d="M 120.18372546131832 94.20196356495316 l 11.202286037408355 -3.218001687804757 a32.65533128343542,32.65533128343542 0 0,0 0.1505460990368883,0.5415944175776214 l -11.256018907011605 3.0246959668081836" fill="#f36b00" stroke="none" /><path d="M 120.6074358757038 95.95851677861258 l 22.863538322693703 -4.483944876502464 a44.299080374315125,44.299080374315125 0 0,0 0.1403105363122157,0.7495444954877193 l -22.937334582915778 4.089722303552182" fill="#e0e400" stroke="none" /><path d="M 120.83666639777658 97.38593545837742 l 11.682124255035038 -1.4655812116459648 a32.77369760941768,32.77369760941768 0 0,0 0.06540638559894367,0.5603619688052012 l -11.705620993637572 1.2642755045159109" fill="#f36d00" stroke="none" /><line stroke="#006cb8" stroke-width="0.3" x1="184.98032266829074" x2="189.97916517819016" y1="98.17113171792111" y2="98.06355123074" /><path d="M 185.9800911702706 98.14961562048488 a86.0,86.0 0 0,1 -9.607161424134198,41.387399972396054" fill="none" id="id40" stroke="none" /><text fill="#006cb8" style="font-size:6.75px; font-family:Arial;" text-anchor="middle"><textPath startOffset="21.466115282336823" xlink:href="#id40">四月</textPath></text><path d="M 120.9904718944345 100.63252640178507 l 12.19487583991138 0.3674801106915582 a33.20041140218674,33.20041140218674 0 0,0 -0.022130235623486125,0.5710830479507368 l -12.18674347143669 -0.5773404056563012" fill="#f27100" stroke="none" /><path d="M 120.9764740272857 100.99374915477107 l 30.448558724197582 1.4424840636614744 a51.48270802692612,51.48270802692612 0 0,0 -0.04955492359124111,0.8848364498363318 l -30.41921744971881 -1.9663922298332297" fill="#8ada00" stroke="none" /><path d="M 120.23288151984713 105.62410040840565 l 15.42389576124342 4.287354639274874 a37.00868421378267,37.00868421378267 0 0,0 -0.1758923420806042,0.6123043176900179 l -15.347810782276717 -4.552216432469473" fill="#ed9c00" stroke="none" /><path d="M 120.02730092923936 106.31721596034902 l 19.666565212004322 6.203429013299252 a41.621743834144134,41.621743834144134 0 0,0 -0.22140339583288776,0.6814095864295796 l -19.55686956515519 -6.5410374997066265" fill="#e7cc00" stroke="none" /><path d="M 119.79798401119884 107.00284435728193 l 11.034713785562849 3.9031440334399288 a32.70467606023629,32.70467606023629 0 0,0 -0.19229685929154025,0.5291183685555296 l -10.96589266526608 -4.092510199001589" fill="#f36c00" stroke="none" /><path d="M 119.54520255179757 107.68017299344265 l 10.849183997841122 4.263123378757017 a32.65671541908425,32.65671541908425 0 0,0 -0.21008747047898021,0.5214198725807756 l -10.77419391310475 -4.449242619180606" fill="#f36b00" stroke="none" /><path d="M 119.26925614724726 108.34839909993367 l 12.109114808220076 5.246270141070263 a34.19674247046369,34.19674247046369 0 0,0 -0.2386589277235795,0.538112877899804 l -12.017014795765222 -5.453931355462754" fill="#f17d00" stroke="none" /><path d="M 118.97047184881838 109.00673069616215 l 14.018849606807963 6.655817740578904 a36.51863570337627,36.51863570337627 0 0,0 -0.27449274850721744,0.5655363639913698 l -13.902203601686033 -6.896143060535549" fill="#ee9600" stroke="none" /><path d="M 118.64920377521936 109.65438752849418 l 20.684201777164912 10.707872683533337 a44.29151649346241,44.29151649346241 0 0,0 -0.35633050564220253,0.674043030017877 l -20.496818763297814 -11.062330728637347" fill="#e0e400" stroke="none" /><line stroke="#006cb8" stroke-width="0.3" x1="174.80103733775053" x2="179.2010983576182" y1="140.37084112569926" y2="142.7455964860345" /><path d="M 175.68104954172406 140.8457921977663 a86.0,86.0 0 0,1 -30.038265399797805,32.042727171017184" fill="none" id="id41" stroke="none" /><text fill="#006cb8" style="font-size:6.75px; font-family:Arial;" text-anchor="middle"><textPath startOffset="22.206326154141568" xlink:href="#id41">五月</textPath></text><path d="M 116.71984013943494 112.70617746262583 l 9.287335402148999 7.0578744049296125 a32.66482704491458,32.66482704491458 0 0,0 -0.3440589075755225,0.4447425176488405 l -9.164469677355408 -7.216694916691705" fill="#f36b00" stroke="none" /><path d="M 115.80600337817218 113.82643327865902 l 12.33530111674377 10.790407529480664 a37.3887933751394,37.3887933751394 0 0,0 -0.42790788619245673,0.4807590463575813 l -12.147734380902975 -11.001140745579113" fill="#eda000" stroke="none" /><path d="M 114.29624159901734 115.38237550388516 l 9.177421589259275 9.874661397241084 a34.480875518198566,34.480875518198566 0 0,0 -0.4382362481230561,0.40031842217925784 l -9.006085791669355 -10.031172586006925" fill="#f18000" stroke="none" /><path d="M 112.92097659922987 116.55440617244103 l 12.696809520541251 16.267202427228597 a41.63566928425969,41.63566928425969 0 0,0 -0.5687655898857127,0.4361052009154122 l -12.414915202162046 -16.48334696997138" fill="#e7cc00" stroke="none" /><line stroke="#006cb8" stroke-width="0.3" x1="143.8653032363475" x2="146.44561519142675" y1="172.8068346515853" y2="177.08958963109032" /><path d="M 144.38136562736335 173.6633856474863 a86.0,86.0 0 0,1 -40.68145358897372,12.25698825130547" fill="none" id="id42" stroke="none" /><text fill="#006cb8" style="font-size:6.75px; font-family:Arial;" text-anchor="middle"><textPath startOffset="21.466115282336833" xlink:href="#id42">六月</textPath></text><path d="M 110.21172684928248 118.3499491758327 l 2.8613404367909867 5.14168194711933 a26.88422997005964,26.88422997005964 0 0,0 -0.4063067291892443,0.221550824598046 l -2.7724108957330937 -5.190173423477146" fill="#fb2700" stroke="none" /><path d="M 109.89434966115114 118.52300852407294 l 5.664117880759102 10.603678602404317 a33.02165676062256,33.02165676062256 0 0,0 -0.5036731940035647,0.26349801003741163 l -5.480753784229043 -10.699606031386445" fill="#f36f00" stroke="none" /><path d="M 108.59647513512805 119.15986991738527 l 4.772832606145141 10.637714927774722 a32.65937005034506,32.65937005034506 0 0,0 -0.5148972477319526,0.22571582197040682 l -4.589014683755435 -10.718295303039582" fill="#f36b00" stroke="none" /><path d="M 107.93186726928326 119.44442032107085 l 6.827705497266429 16.737644618873077 a39.07667861486432,39.07667861486432 0 0,0 -0.6250015602389735,0.24870101938126193 l -6.538582860985589 -16.852692482660405" fill="#ebb200" stroke="none" /><path d="M 107.2578585660854 119.70592522655815 l 4.060659621785196 11.025160403554406 a32.74917522586588,32.74917522586588 0 0,0 -0.530662082612926,0.19027654277243408 l -3.8702779785425347 -11.0934244873668" fill="#f36c00" stroke="none" /><path d="M 106.57524785965236 119.94407469862006 l 5.339345719247891 16.195330144112205 a38.05278074644837,38.05278074644837 0 0,0 -0.6238457224255527,0.19973569992206333 l -5.059778651731398 -16.284838690693974" fill="#eca700" stroke="none" /><path d="M 105.53697534728816 120.25689768951611 l 3.06978906982562 11.23075311258311 a32.64274110375285,32.64274110375285 0 0,0 -0.5432833327900757,0.1434860660152316 l -2.876015294224047 -11.281930527901926" fill="#f36b00" stroke="none" /><path d="M 104.83641907484287 120.43548508189849 l 2.685913375608367 11.348880622033299 a32.66238492052268,32.66238492052268 0 0,0 -0.5482301217742224,0.12477539083177687 l -2.4901631044412826 -11.39343274644276" fill="#f36b00" stroke="none" /><line stroke="#006cb8" stroke-width="0.3" x1="102.19456741930631" x2="102.32365962044197" y1="184.97166512339345" y2="189.96999836594603" /><path d="M 102.22038585953345 185.97133177190398 a86.0,86.0 0 0,1 -42.740103519485714,-10.115201625700543" fill="none" id="id43" stroke="none" /><text fill="#006cb8" style="font-size:6.75px; font-family:Arial;" text-anchor="middle"><textPath startOffset="22.20632615414155" xlink:href="#id43">七月</textPath></text><path d="M 100.54218724476979 120.99299961872073 l 0.30130509811714196 11.6662608183957 a32.67015108064099,32.67015108064099 0 0,0 -0.56230045418287,0.009680512256789293 l -0.10044495404160406 -11.66971880793165" fill="#f36b00" stroke="none" /><path d="M 99.45781275523022 120.99299961872073 l -0.3018661685623618 11.687984958453157 a32.691882464887755,32.691882464887755 0 0,0 -0.5624243714289786,-0.019371032540049918 l 0.5030108916659836 -11.681057127487014" fill="#f36c00" stroke="none" /><path d="M 98.73552117531835 120.96189622390904 l -0.729551022935697 12.094131221750548 a33.11611549565239,33.11611549565239 0 0,0 -0.568709736479913,-0.03922155312222746 l 0.93762352019454 -12.079781324112034" fill="#f37000" stroke="none" /><path d="M 98.01472825383883 120.90594882070398 l -1.1524043487114677 12.135419940118718 a33.190014475215364,33.190014475215364 0 0,0 -0.5682879677845695,-0.058905371450177116 l 1.3611249131016305 -12.11378520021278" fill="#f27100" stroke="none" /><line stroke="#006cb8" stroke-width="0.3" x1="58.666819895761336" x2="56.23545636021788" y1="174.27360380694188" y2="178.64263932499728" /><path d="M 58.180547188652646 175.14741091055294 a86.0,86.0 0 0,1 -31.652253787137756,-30.449443065178592" fill="none" id="id44" stroke="none" /><text fill="#006cb8" style="font-size:6.75px; font-family:Arial;" text-anchor="middle"><textPath startOffset="22.20632615414155" xlink:href="#id44">八月</textPath></text><line stroke="#006cb8" stroke-width="0.3" x1="26.63291911575756" x2="22.317208475507996" y1="142.92168965132927" y2="145.44649492493687" /><path d="M 25.769776987707644 143.4266507060508 a86.0,86.0 0 0,1 -11.730757126820373,-40.83630448921669" fill="none" id="id45" stroke="none" /><text fill="#006cb8" style="font-size:6.75px; font-family:Arial;" text-anchor="middle"><textPath startOffset="21.46611528233685" xlink:href="#id45">九月</textPath></text><line stroke="#006cb8" stroke-width="0.3" x1="15.007084014347285" x2="10.007500721073583" y1="101.09737516637583" y2="101.16192664675087" /><path d="M 14.007167355692545 101.11028546245083 a86.0,86.0 0 0,1 10.666146001902534,-42.60595125391555" fill="none" id="id46" stroke="none" /><text fill="#006cb8" style="font-size:6.75px; font-family:Arial;" text-anchor="middle"><textPath startOffset="22.20632615414155" xlink:href="#id46">十月</textPath></text><line stroke="#006cb8" stroke-width="0.3" x1="26.266209847984243" x2="21.928928074336255" y1="57.711370442889674" y2="55.22380399835377" /><path d="M 25.398753493254645 57.213857153982495 a86.0,86.0 0 0,1 29.58750427330803,-30.492523968695096" fill="none" id="id47" stroke="none" /><text fill="#006cb8" style="font-size:6.75px; font-family:Arial;" text-anchor="middle"><textPath startOffset="21.46611528233685" xlink:href="#id47">十一月</textPath></text><line stroke="#006cb8" stroke-width="0.3" x1="56.762969772571076" x2="54.21961505331055" y1="26.818313649435495" y2="22.513508569990535" /><path d="M 56.25429882871897 25.957352633546506 a86.0,86.0 0 0,1 42.265352541879196,-11.944610805530505" fill="none" id="id48" stroke="none" /><text fill="#006cb8" style="font-size:6.75px; font-family:Arial;" text-anchor="middle"><textPath startOffset="22.20632615414155" xlink:href="#id48">十二月</textPath></text></svg>