<?xml version="1.0" encoding="utf-8" ?>
<svg baseProfile="full" height="200mm" version="1.1" viewBox="0,0,200,200" width="200mm" xmlns="http://www.w3.org/2000/svg" xmlns:ev="http://www.w3.org/2001/xml-events" xmlns:xlink="http://www.w3.org/1999/xlink"><defs /><rect fill="#f5f5f5" height="200" rx="1" ry="1" width="200" x="0" y="0" /><text alignment-baseline="middle" fill="#006cb8" style="dominant-baseline: central; font-size:9.0px; font-family:Arial;" text-anchor="middle" x="100.0" y="100.0">2026</text><line stroke="#006cb8" stroke-width="0.3" x1="100.0" x2="100.0" y1="15.0" y2="10.0" /><path d="M 100.0 14.0 a86.0,86.0 0 0,1 42.46469731375804,11.215312516191453" fill="none" id="id49" stroke="none" /><text fill="#006cb8" style="font-size:6.75px; font-family:Arial;" text-anchor="middle"><textPath startOffset="22.20632615414155" xlink:href="#id49">一月</textPath></text><path d="M 100.0 79.0 l 0.0 -63.0 a84.0,84.0 0 0,0 1.4459219170901134,0.012445506434235476 l -1.084441437817585 62.990665870174325" fill="#00afaa" stroke="none" /><path d="M 103.2404852339499 79.25152402106235 l 2.966266741888008 -18.99268467462377 a40.222924063048254,40.222924063048254 0 0,0 0.6831591550944363,0.11272711412409932 l -3.2927551031213196 18.938811297560047" fill="#f93900" stroke="none" /><path d="M 103.59715602781102 79.31037775812273 l 2.6619503347739424 -15.310636076752596 a36.54032035253975,36.54032035253975 0 0,0 0.6187579139917193,0.11307405378093371 l -2.9251033698685625 15.262546541620925" fill="#ff0000" stroke="none" /><path d="M 106.0581310904928 79.89281104454417 l 5.044312943545698 -16.742284376364413 a38.48568497976212,38.48568497976212 0 0,0 0.6326581617267281,0.19656997047062327 l -5.331756477983145 16.65297427101127" fill="#fc1f00" stroke="none" /><path d="M 108.76106565485865 80.91482961587045 l 7.780279739996386 -16.948619074858186 a39.64908687784056,39.64908687784056 0 0,0 0.6178116727859346,0.2900708643230984 l -8.070869624081919 16.812183227895083" fill="#fa3100" stroke="none" /><path d="M 109.73455568895987 81.39251694778311 l 11.35966474592793 -21.713858956957182 a45.505788172236116,45.505788172236116 0 0,0 0.6909402843024226,0.36907637109698427 l -11.731750076758663 21.515103859358444" fill="#f08700" stroke="none" /><line stroke="#006cb8" stroke-width="0.3" x1="143.23703022742887" x2="145.7803849466894" y1="26.81831364943548" y2="22.513508569990506" /><path d="M 143.74570117128098 25.957352633546492 a86.0,86.0 0 0,1 28.547481713284135,27.462654790039103" fill="none" id="id50" stroke="none" /><text fill="#006cb8" style="font-size:6.75px; font-family:Arial;" text-anchor="middle"><textPath startOffset="19.985693538727396" xlink:href="#id50">二月</textPath></text><path d="M 110.68208982089419 81.91981866633111 l 15.812206235446268 -26.76326082402355 a52.085334097722026,52.085334097722026 0 0,0 0.7679807252563181,0.46269979397194644 l -16.270549026920225 26.487114420592988" fill="#e5df00" stroke="none" /><path d="M 112.48926042617603 83.11751280151076 l 11.087893205098247 -14.988174536016254 a39.64367859757698,39.64367859757698 0 0,0 0.5451078416293728,0.410563925044528 l -11.344247200486004 14.795094021465879" fill="#fa3100" stroke="none" /><path d="M 113.06298171725822 83.55741782278167 l 15.472627671903183 -19.475641740863452 a45.87373772258216,45.87373772258216 0 0,0 0.6140453223315117,0.496515280002258 l -15.805576392799185 19.206420363597065" fill="#ef8c00" stroke="none" /><path d="M 113.6212207817346 84.01681056812373 l 12.091570937590536 -14.188292805857312 a39.64172042713672,39.64172042713672 0 0,0 0.5155428419505849,0.44707367229602274 l -12.334007578187885 13.978054140141618" fill="#fa3100" stroke="none" /><path d="M 113.89432698308785 84.25364557470407 l 10.2998848860792 -11.672795533987655 a36.56733067178715,36.56733067178715 0 0,0 0.46839096017404225,0.42052602875702233 l -10.499286833849231 11.493770496461336" fill="#ff0000" stroke="none" /><path d="M 114.16331599549186 84.49514656593476 l 20.961322231720636 -22.946761132102754 a52.079428504330764,52.079428504330764 0 0,0 0.6566772421150818,0.6103099292747355 l -21.353207357630566 22.58254661675338" fill="#e5df00" stroke="none" /><path d="M 114.68862486808459 84.99185889309783 l 23.567433250266916 -24.08008693285033 a54.693834698642064,54.693834698642064 0 0,0 0.6671715429218273,0.6643064962901029 l -23.978440593356066 23.67084458591011" fill="#c2e000" stroke="none" /><path d="M 115.4437574822437 85.77008943001954 l 13.911528625998866 -12.818111684756085 a39.916517012253244,39.916517012253244 0 0,0 0.46123793797530716,0.5093104512067088 l -14.13011020459021 12.576748446279826" fill="#f93500" stroke="none" /><path d="M 116.15771136456269 86.58626213691792 l 35.96254881384645 -29.855230842606726 a67.74012971584081,67.74012971584081 0 0,0 0.7370819898575852,0.903575366009891 l -36.47112929578045 29.231771306988737" fill="#09ca00" stroke="none" /><path d="M 117.45458315368197 88.32363383020206 l 15.306736937969072 -10.239549336633507 a39.41587810302671,39.41587810302671 0 0,0 0.37239251599820905,0.5671793502472675 l -15.480726089325207 9.974551922408565" fill="#fa2d00" stroke="none" /><line stroke="#006cb8" stroke-width="0.3" x1="172.23445277983987" x2="176.4835382374775" y1="55.19839476539836" y2="52.563006222186495" /><path d="M 173.08426987136738 54.67131705675599 a86.0,86.0 0 0,1 12.851231095245387,41.99856678651699" fill="none" id="id51" stroke="none" /><text fill="#006cb8" style="font-size:6.75px; font-family:Arial;" text-anchor="middle"><textPath startOffset="22.20632615414155" xlink:href="#id51">三月</textPath></text><path d="M 119.04729006885535 91.15688171328212 l 29.209847390909314 -13.561306342320625 a53.20441296329553,53.20441296329553 0 0,0 0.3785055249543628,0.8339867514283303 l -29.438955232827027 13.056497582050232" fill="#d9e300" stroke="none" /><path d="M 119.97218684219823 93.5106431181261 l 31.556958194750408 -10.253477270672828 a54.18094945364628,54.18094945364628 0 0,0 0.28056576844362086,0.8894701574763405 l -31.728779446962236 9.708756946770068" fill="#cae100" stroke="none" /><path d="M 120.37134235888165 94.90015583598534 l 19.54739976767249 -4.893575046288632 a41.15063062067441,41.15063062067441 0 0,0 0.1661058916769499,0.6886161584111261 l -19.62873845961026 4.556373656218099" fill="#f74700" stroke="none" /><path d="M 120.53481517161879 95.60439243477599 l 18.249990101134447 -3.906526252287965 a39.66341571233198,39.66341571233198 0 0,0 0.13716119883074873,0.6688467173070184 l -18.314530595880193 3.591803878817535" fill="#fa3100" stroke="none" /><line stroke="#006cb8" stroke-width="0.3" x1="184.98032266829074" x2="189.97916517819016" y1="98.17113171792111" y2="98.06355123074" /><path d="M 185.9800911702706 98.14961562048488 a86.0,86.0 0 0,1 -9.607161424134198,41.387399972396054" fill="none" id="id52" stroke="none" /><text fill="#006cb8" style="font-size:6.75px; font-family:Arial;" text-anchor="middle"><textPath startOffset="21.466115282336823" xlink:href="#id52">四月</textPath></text><line stroke="#006cb8" stroke-width="0.3" x1="174.80103733775053" x2="179.2010983576182" y1="140.37084112569926" y2="142.7455964860345" /><path d="M 175.68104954172406 140.8457921977663 a86.0,86.0 0 0,1 -30.038265399797805,32.042727171017184" fill="none" id="id53" stroke="none" /><text fill="#006cb8" style="font-size:6.75px; font-family:Arial;" text-anchor="middle"><textPath startOffset="22.206326154141568" xlink:href="#id53">五月</textPath></text><line stroke="#006cb8" stroke-width="0.3" x1="143.8653032363475" x2="146.44561519142675" y1="172.8068346515853" y2="177.08958963109032" /><path d="M 144.38136562736335 173.6633856474863 a86.0,86.0 0 0,1 -40.68145358897372,12.25698825130547" fill="none" id="id54" stroke="none" /><text fill="#006cb8" style="font-size:6.75px; font-family:Arial;" text-anchor="middle"><textPath startOffset="21.466115282336833" xlink:href="#id54">六月</textPath></text><line stroke="#006cb8" stroke-width="0.3" x1="102.19456741930631" x2="102.32365962044197" y1="184.97166512339345" y2="189.96999836594603" /><path d="M 102.22038585953345 185.97133177190398 a86.0,86.0 0 0,1 -42.740103519485714,-10.115201625700543" fill="none" id="id55" stroke="none" /><text fill="#006cb8" style="font-size:6.75px; font-family:Arial;" text-anchor="middle"><textPath startOffset="22.20632615414155" xlink:href="#id55">七月</textPath></text><line stroke="#006cb8" stroke-width="0.3" x1="58.666819895761336" x2="56.23545636021788" y1="174.27360380694188" y2="178.64263932499728" /><path d="M 58.180547188652646 175.14741091055294 a86.0,86.0 0 0,1 -31.652253787137756,-30.449443065178592" fill="none" id="id56" stroke="none" /><text fill="#006cb8" style="font-size:6.75px; font-family:Arial;" text-anchor="middle"><textPath startOffset="22.20632615414155" xlink:href="#id56">八月</textPath></text><line stroke="#006cb8" stroke-width="0.3" x1="26.63291911575756" x2="22.317208475507996" y1="142.92168965132927" y2="145.44649492493687" /><path d="M 25.769776987707644 143.4266507060508 a86.0,86.0 0 0,1 -11.730757126820373,-40.83630448921669" fill="none" id="id57" stroke="none" /><text fill="#006cb8" style="font-size:6.75px; font-family:Arial;" text-anchor="middle"><textPath startOffset="21.46611528233685" xlink:href="#id57">九月</textPath></text><line stroke="#006cb8" stroke-width="0.3" x1="15.007084014347285" x2="10.007500721073583" y1="101.09737516637583" y2="101.16192664675087" /><path d="M 14.007167355692545 101.11028546245083 a86.0,86.0 0 0,1 10.666146001902534,-42.60595125391555" fill="none" id="id58" stroke="none" /><text fill="#006cb8" style="font-size:6.75px; font-family:Arial;" text-anchor="middle"><textPath startOffset="22.20632615414155" xlink:href="#id58">十月</textPath></text><line stroke="#006cb8" stroke-width="0.3" x1="26.266209847984243" x2="21.928928074336255" y1="57.711370442889674" y2="55.22380399835377" /><path d="M 25.398753493254645 57.213857153982495 a86.0,86.0 0 0,1 29.58750427330803,-30.492523968695096" fill="none" id="id59" stroke="none" /><text fill="#006cb8" style="font-size:6.75px; font-family:Arial;" text-anchor="middle"><textPath startOffset="21.46611528233685" xlink:href="#id59">十一月</textPath></text><line stroke="#006cb8" stroke-width="0.3" x1="56.762969772571076" x2="54.21961505331055" y1="26.818313649435495" y2="22.513508569990535" /><path d="M 56.25429882871897 25.957352633546506 a86.0,86.0 0 0,1 42.265352541879196,-11.944610805530505" fill="none" id="id60" stroke="none" /><text fill="#006cb8" style="font-size:6.75px; font-family:Arial;" text-anchor="middle"><textPath startOffset="22.20632615414155" xlink:href="#id60">十二月</textPath></text></svg>