<?xml version="1.0" encoding="utf-8" ?>
<svg baseProfile="full" height="200mm" version="1.1" viewBox="0,0,200,200" width="200mm" xmlns="http://www.w3.org/2000/svg" xmlns:ev="http://www.w3.org/2001/xml-events" xmlns:xlink="http://www.w3.org/1999/xlink"><defs /><rect fill="#f5f5f5" height="200" rx="1" ry="1" width="200" x="0" y="0" /><text alignment-baseline="middle" fill="#006cb8" style="dominant-baseline: central; font-size:9.0px; font-family:Arial;" text-anchor="middle" x="100.0" y="100.0">2023</text><line stroke="#006cb8" stroke-width="0.3" x1="100.0" x2="100.0" y1="15.0" y2="10.0" /><path d="M 100.0 14.0 a86.0,86.0 0 0,1 42.46469731375804,11.215312516191453" fill="none" id="id13" stroke="none" /><text fill="#006cb8" style="font-size:6.75px; font-family:Arial;" text-anchor="middle"><textPath startOffset="22.20632615414155" xlink:href="#id13">一月</textPath></text><path d="M 102.52436894288641 79.15227682838746 l 7.57310682865922 -62.54316951483763 a84.0,84.0 0 0,0 1.4339410859686157,0.1861667073434532 l -8.648562643135682 62.40354448433004" fill="red" stroke="none" /><path d="M 103.2404852339499 79.25152402106235 l 5.208377606675968 -33.348677700848214 a54.75294804441198,54.75294804441198 0 0,0 0.9299417831065402,0.1534483622612483 l -5.781648595921383 33.25408307564734" fill="red" stroke="none" /><path d="M 109.08828744355905 81.06846463323043 l 9.613183058011876 -20.024929468858435 a43.21285863502493,43.21285863502493 0 0,0 0.6678006791277125,0.3276868930214613 l -9.95645500415002 19.856487415702144" fill="red" stroke="none" /><line stroke="#006cb8" stroke-width="0.3" x1="143.23703022742887" x2="145.7803849466894" y1="26.81831364943548" y2="22.513508569990506" /><path d="M 143.74570117128098 25.957352633546492 a86.0,86.0 0 0,1 28.547481713284135,27.462654790039103" fill="none" id="id14" stroke="none" /><text fill="#006cb8" style="font-size:6.75px; font-family:Arial;" text-anchor="middle"><textPath startOffset="19.985693538727396" xlink:href="#id14">二月</textPath></text><path d="M 111.90073688211348 82.69761687909136 l 21.670414876203864 -31.506437314874006 a59.23954070308485,59.23954070308485 0 0,0 0.835189681311917,0.585103745215361 l -22.20953569709943 31.12874872689471" fill="red" stroke="none" /><path d="M 115.19652480421416 85.50635884689758 l 16.62943240657848 -15.860272594289652 a43.980127696123404,43.980127696123404 0 0,0 0.5177773690663621,0.5523287963369636 l -16.899977097615302 15.571674381074633" fill="red" stroke="none" /><path d="M 115.68641384162765 86.03803664274999 l 21.183144360127976 -18.854423218299818 a49.358682618852114,49.358682618852114 0 0,0 0.5594175269697832,0.6395109384240765 l -21.50455375067561 18.486996723672792" fill="red" stroke="none" /><line stroke="#006cb8" stroke-width="0.3" x1="172.23445277983987" x2="176.4835382374775" y1="55.19839476539836" y2="52.563006222186495" /><path d="M 173.08426987136738 54.67131705675599 a86.0,86.0 0 0,1 12.851231095245387,41.99856678651699" fill="none" id="id15" stroke="none" /><text fill="#006cb8" style="font-size:6.75px; font-family:Arial;" text-anchor="middle"><textPath startOffset="22.20632615414155" xlink:href="#id15">三月</textPath></text><line stroke="#006cb8" stroke-width="0.3" x1="184.98032266829074" x2="189.97916517819016" y1="98.17113171792111" y2="98.06355123074" /><path d="M 185.9800911702706 98.14961562048488 a86.0,86.0 0 0,1 -9.607161424134198,41.387399972396054" fill="none" id="id16" stroke="none" /><text fill="#006cb8" style="font-size:6.75px; font-family:Arial;" text-anchor="middle"><textPath startOffset="21.466115282336823" xlink:href="#id16">四月</textPath></text><path d="M 120.89721153311464 102.0752229133903 l 20.683748369685112 2.0540246952829806 a41.78548686149266,41.78548686149266 0 0,0 -0.07723887764862761,0.7151360795169135 l -20.645327190535433 -2.409757096684686" fill="red" stroke="none" /><line stroke="#006cb8" stroke-width="0.3" x1="174.80103733775053" x2="179.2010983576182" y1="140.37084112569926" y2="142.7455964860345" /><path d="M 175.68104954172406 140.8457921977663 a86.0,86.0 0 0,1 -30.038265399797805,32.042727171017184" fill="none" id="id17" stroke="none" /><text fill="#006cb8" style="font-size:6.75px; font-family:Arial;" text-anchor="middle"><textPath startOffset="22.206326154141568" xlink:href="#id17">五月</textPath></text><path d="M 114.0293411484842 115.62618273729858 l 21.05730667327999 23.454082308602313 a52.51990071797901,52.51990071797901 0 0,0 -0.6779009863902384,0.5981688022932159 l -20.65046333398316 -23.813074252667818" fill="red" stroke="none" /><path d="M 112.04921762599082 117.19931262002967 l 7.168964555951645 10.23313433178906 a33.49444240680355,33.49444240680355 0 0,0 -0.4750518606791324,0.32674500152924246 l -6.991755810649629 -10.355020122683396" fill="red" stroke="none" /><line stroke="#006cb8" stroke-width="0.3" x1="143.8653032363475" x2="146.44561519142675" y1="172.8068346515853" y2="177.08958963109032" /><path d="M 144.38136562736335 173.6633856474863 a86.0,86.0 0 0,1 -40.68145358897372,12.25698825130547" fill="none" id="id18" stroke="none" /><text fill="#006cb8" style="font-size:6.75px; font-family:Arial;" text-anchor="middle"><textPath startOffset="21.466115282336833" xlink:href="#id18">六月</textPath></text><line stroke="#006cb8" stroke-width="0.3" x1="102.19456741930631" x2="102.32365962044197" y1="184.97166512339345" y2="189.96999836594603" /><path d="M 102.22038585953345 185.97133177190398 a86.0,86.0 0 0,1 -42.740103519485714,-10.115201625700543" fill="none" id="id19" stroke="none" /><text fill="#006cb8" style="font-size:6.75px; font-family:Arial;" text-anchor="middle"><textPath startOffset="22.20632615414155" xlink:href="#id19">七月</textPath></text><path d="M 97.65516085044442 120.86867818915974 l -1.3375309195135685 11.903802583929831 a32.97871048643506,32.97871048643506 0 0,0 -0.5635788007956724,-0.06824154416703988 l 1.5422371433606301 -11.879015511037442" fill="red" stroke="none" /><path d="M 94.81253420990036 120.34920634021253 l -5.693950337590165 22.336025913015128 a44.05036060528829,44.05036060528829 0 0,0 -0.7331439061499299,-0.19362996905546784 l 6.0775846865515835 -22.234704594656076" fill="red" stroke="none" /><line stroke="#006cb8" stroke-width="0.3" x1="58.666819895761336" x2="56.23545636021788" y1="174.27360380694188" y2="178.64263932499728" /><path d="M 58.180547188652646 175.14741091055294 a86.0,86.0 0 0,1 -31.652253787137756,-30.449443065178592" fill="none" id="id20" stroke="none" /><text fill="#006cb8" style="font-size:6.75px; font-family:Arial;" text-anchor="middle"><textPath startOffset="22.20632615414155" xlink:href="#id20">八月</textPath></text><path d="M 84.67929136418377 114.36230785411682 l -11.465622363287055 10.748379989135012 a36.71585723300979,36.71585723300979 0 0,0 -0.42827052917817826,-0.464803074966126 l 11.648939300460963 -10.549425659367543" fill="red" stroke="none" /><path d="M 83.06392112726016 112.41649034213515 l -17.70379074407286 12.979329421214546 a42.95192927590478,42.95192927590478 0 0,0 -0.43201501997737296,-0.6000310776471377 l 17.924585556425843 -12.67266473811627" fill="red" stroke="none" /><path d="M 82.44556493220864 111.52570212397912 l -30.494958609409046 20.02205185514651 a57.48047506653041,57.48047506653041 0 0,0 -0.5359236889906496,-0.8317654666177307 l 30.835087161776745 -19.494164788607332" fill="red" stroke="none" /><path d="M 82.05923443525364 110.91462005526583 l -17.48810665482215 10.639236042324827 a41.470154321224314,41.470154321224314 0 0,0 -0.3657650318112549,-0.6130432320809865 l 17.668652562331637 -10.33663071635773" fill="red" stroke="none" /><line stroke="#006cb8" stroke-width="0.3" x1="26.63291911575756" x2="22.317208475507996" y1="142.92168965132927" y2="145.44649492493687" /><path d="M 25.769776987707644 143.4266507060508 a86.0,86.0 0 0,1 -11.730757126820373,-40.83630448921669" fill="none" id="id21" stroke="none" /><text fill="#006cb8" style="font-size:6.75px; font-family:Arial;" text-anchor="middle"><textPath startOffset="21.46611528233685" xlink:href="#id21">九月</textPath></text><path d="M 79.67330655649465 105.27499134158121 l -24.19710471554627 6.279403889304142 a45.99861575807988,45.99861575807988 0 0,0 -0.19229323912611632,-0.7681159034578595 l 24.301609268967447 -5.861960146448891" fill="red" stroke="none" /><path d="M 79.50377843672027 104.57218783832718 l -22.50809047439528 5.020984829485342 a44.06131881444523,44.06131881444523 0 0,0 -0.15875914491256585,-0.7416698713907127 l 22.59118365803229 -4.632801138678466" fill="red" stroke="none" /><path d="M 79.0235259727143 100.99374915477108 l -22.759160263754975 1.0782029546999417 a43.78468559192352,43.78468559192352 0 0,0 -0.02918534343179453,-0.7531440318162478 l 22.77434774003797 -0.686281675869697" fill="red" stroke="none" /><line stroke="#006cb8" stroke-width="0.3" x1="15.007084014347285" x2="10.007500721073583" y1="101.09737516637583" y2="101.16192664675087" /><path d="M 14.007167355692545 101.11028546245083 a86.0,86.0 0 0,1 10.666146001902534,-42.60595125391555" fill="none" id="id22" stroke="none" /><text fill="#006cb8" style="font-size:6.75px; font-family:Arial;" text-anchor="middle"><textPath startOffset="22.20632615414155" xlink:href="#id22">十月</textPath></text><path d="M 79.21141760316559 97.0276538004421 l -39.52648415793049 -5.65148660577263 a60.928464167087085,60.928464167087085 0 0,0 0.1573814334694823,-1.036947008281121 l 39.4233468310217 6.331032726445842" fill="red" stroke="none" /><path d="M 79.32604984820605 96.31383870115002 l -19.121997879724994 -3.4094485100041396 a40.42357181505442,40.42357181505442 0 0,0 0.12803545791695553,-0.683970535864519 l 19.060476697898178 3.7380971233312312" fill="red" stroke="none" /><path d="M 79.71946130924805 94.55025226153421 l -38.42834859820184 -10.32639265945753 a60.79161169571069,60.79161169571069 0 0,0 0.2802586786065498,-1.0082395809790878 l 38.244903149028936 10.986343543855561" fill="red" stroke="none" /><path d="M 81.26839172434947 90.50648371742162 l -18.04680083937382 -9.146443545894329 a41.23226260392682,41.23226260392682 0 0,0 0.3263053854398872,-0.6303181437516951 l 17.88668602077382 9.45573441190636" fill="red" stroke="none" /><line stroke="#006cb8" stroke-width="0.3" x1="26.266209847984243" x2="21.928928074336255" y1="57.711370442889674" y2="55.22380399835377" /><path d="M 25.398753493254645 57.213857153982495 a86.0,86.0 0 0,1 29.58750427330803,-30.492523968695096" fill="none" id="id23" stroke="none" /><text fill="#006cb8" style="font-size:6.75px; font-family:Arial;" text-anchor="middle"><textPath startOffset="21.46611528233685" xlink:href="#id23">十一月</textPath></text><path d="M 87.51073957382395 83.11751280151077 l -17.80723800846556 -24.071118501803685 a50.94188490088786,50.94188490088786 0 0,0 0.7094377539538678,-0.5154366992200898 l 17.39025493815791 24.374074435840445" fill="red" stroke="none" /><path d="M 88.09926311788651 82.69761687909137 l -10.564164468408482 -15.359151521063811 a39.641488845115916,39.641488845115916 0 0,0 0.5655430459396313,-0.381857189148204 l 10.298216728062311 15.53872062251068" fill="red" stroke="none" /><line stroke="#006cb8" stroke-width="0.3" x1="56.762969772571076" x2="54.21961505331055" y1="26.818313649435495" y2="22.513508569990535" /><path d="M 56.25429882871897 25.957352633546506 a86.0,86.0 0 0,1 42.265352541879196,-11.944610805530505" fill="none" id="id24" stroke="none" /><text fill="#006cb8" style="font-size:6.75px; font-family:Arial;" text-anchor="middle"><textPath startOffset="22.20632615414155" xlink:href="#id24">十二月</textPath></text></svg>